<svg width="35" height="35" viewBox="0 0 35 35" fill="none" xmlns="http://www.w3.org/2000/svg">
<path d="M1.45825 17.539C1.45825 8.65794 8.64035 1.45837 17.4999 1.45837C26.3595 1.45837 33.5416 8.65794 33.5416 17.539C33.5416 25.8822 27.2031 32.7414 19.09 33.5417C19.1335 33.5341 19.1768 33.5259 19.2201 33.5172V22.1551H23.3906L24.0147 17.3013H19.2201V14.2024C19.2201 12.797 19.6092 11.8396 21.6198 11.8396L24.1836 11.8383V7.49719C23.7401 7.43784 22.2183 7.30589 20.4475 7.30589C16.751 7.30589 14.2198 9.56768 14.2198 13.7219V17.3013H10.0386V22.1551H14.2198V33.2833C6.93343 31.7657 1.45825 25.2933 1.45825 17.539Z" fill="#1A1A1A"/>
</svg>
