<svg width="35" height="35" viewBox="0 0 35 35" fill="none" xmlns="http://www.w3.org/2000/svg">
<path d="M17.7257 14.3234V19.6752C17.7257 20.2281 18.1736 20.676 18.7264 20.6753C20.5968 20.6728 24.6062 20.6679 26.5201 20.6679C25.1418 24.7872 22.9993 27.0298 17.7257 27.0298C12.3887 27.0298 8.22315 22.7631 8.22315 17.4994C8.22315 12.2369 12.3887 7.97025 17.7257 7.97025C20.5472 7.97025 22.3698 8.94853 24.0413 10.3116C25.3791 8.99225 25.2674 8.8036 28.6714 5.63262C25.7814 3.03886 21.9408 1.45837 17.7257 1.45837C8.74226 1.45837 1.45825 8.63992 1.45825 17.4994C1.45825 26.3589 8.74226 33.5417 17.7257 33.5417C31.154 33.5417 34.4362 22.011 33.3485 14.3234H17.7257Z" fill="#1A1A1A"/>
</svg>
