<svg xmlns="http://www.w3.org/2000/svg" xmlns:xlink="http://www.w3.org/1999/xlink" width="799.39" height="519.197" viewBox="0 0 1398.784 838.395"><defs><linearGradient id="a" y1="0.5" x2="1" y2="0.5" gradientUnits="objectBoundingBox"><stop offset="0.015" stop-color="#8093f1" stop-opacity="0"/><stop offset="1" stop-color="#8093f1"/></linearGradient><linearGradient id="b" x1="0.052" y1="1.069" x2="1.157" y2="-0.011" gradientUnits="objectBoundingBox"><stop offset="0.007" stop-color="#ff99a8" stop-opacity="0"/><stop offset="1" stop-color="#ff5d80"/></linearGradient><linearGradient id="c" x1="-167.213" y1="3.16" x2="-164.943" y2="0.759" xlink:href="#b"/><linearGradient id="d" x1="-0.444" y1="1.102" x2="0.838" y2="0.096" xlink:href="#b"/><linearGradient id="e" x1="9.004" y1="0.455" x2="9.013" y2="-0.502" gradientUnits="objectBoundingBox"><stop offset="0" stop-color="#c77b86" stop-opacity="0"/><stop offset="1" stop-color="#c77b86"/></linearGradient><linearGradient id="f" x1="0.653" y1="1.254" x2="0.328" y2="-0.352" xlink:href="#e"/><linearGradient id="g" x1="0.045" y1="0.529" x2="0.987" y2="0.529" xlink:href="#e"/></defs><g transform="translate(0 5.903)"><g transform="translate(1120.968)"><g transform="translate(25.437)"><g transform="translate(23.674)"><path d="M640.489,278.462c-4.713-8.123-7.052-17.915-4.936-27.064,1.81-7.824,6.693-14.687,8.4-22.534,3.333-15.292-5.871-30.634-5.558-46.279.3-14.643,8.781-27.692,16.968-39.832,2.494-3.7,5.836-7.833,10.28-7.509s7.283,5.193,7.57,9.649-1.123,8.851-1.245,13.315c-.521,19.026,21.435,32.408,22.7,51.4.918,13.757-9.3,25.692-12.114,39.186-1.433,6.871-.909,13.973-1.026,20.988s-.982,14.321-4.8,20.21C664.634,308.678,647.866,291.172,640.489,278.462Z" transform="translate(-572.543 -135.226)" fill="#fed54c"/><path d="M699.157,157.8s8.956,56.65,3.889,133.064-8.824,97-37.99,172.22c-23.669,61.036-51.569,82-51.569,82" transform="translate(-613.487 -91.805)" fill="none" stroke="#575369" stroke-linecap="round" stroke-linejoin="round" stroke-width="0.381"/></g><g transform="translate(9.024 80.888)"><path d="M658.757,302.3c-7.9-5.073-14.456-12.716-16.751-21.821-1.962-7.789-.754-16.122-2.816-23.885-4.017-15.125-19.213-24.57-26.078-38.633-6.427-13.161-4.833-28.645-3.1-43.186.529-4.427,1.614-9.631,5.719-11.374s8.851,1.292,11.14,5.126,3.044,8.389,4.974,12.415c8.222,17.166,33.868,19.046,43.669,35.362,7.1,11.818,3.465,27.1,7.12,40.394,1.859,6.766,5.57,12.845,8.669,19.14s5.667,13.19,4.962,20.172C694.034,318.151,671.126,310.236,658.757,302.3Z" transform="translate(-608.476 -162.89)" fill="#fed54c"/><path d="M628.2,197.711s32.394,39.932,31.771,117.994" transform="translate(-570.534 -95.899)" fill="none" stroke="#575369" stroke-linecap="round" stroke-linejoin="round" stroke-width="0.381"/></g><g transform="translate(84.886 155.273)"><path d="M683.157,249.274c3.38-4.681,3.409-10.88,4.076-16.614s2.707-12.143,8-14.459c7.073-3.094,14.839,2.988,22.561,2.895,7.415-.088,13.514-5.839,17.813-11.883s7.8-12.921,13.751-17.345,15.555-5.24,20.011.693c2.968,3.95,2.664,9.5,1.164,14.213s-4.038,9.061-5.234,13.856c-2.167,8.7.278,17.768,1.442,26.651s.579,19.046-5.991,25.14c-9.432,8.748-25.444,4.31-36.417,11.02-9.558,5.842-12.514,18.207-19.535,26.935-13.248,16.47-46.867,17.742-53.221-5.552-2.71-9.941-1.439-23.733,2.974-32.976C660.831,258.683,675.5,259.876,683.157,249.274Z" transform="translate(-604.148 -188.331)" fill="#fed54c"/><path d="M634.422,340.868A378.406,378.406,0,0,1,763.269,208.149" transform="translate(-634.422 -150.203)" fill="none" stroke="#575369" stroke-linecap="round" stroke-linejoin="round" stroke-width="0.381"/></g><g transform="translate(0 208.613)"><path d="M611.9,274.111c-5.02-18.9-10-39.268-3.193-57.607,1.833-4.936,5.608-10.228,10.862-9.918,4.023.234,7.006,3.687,9.488,6.862q9.526,12.2,19.058,24.394c7.289,9.33,14.766,19.035,17.625,30.525,1.813,7.292,1.567,14.906,3.257,22.213,1.62,7.014,5.681,13.09,7.5,19.953,2.05,7.734.342,14.33-5.623,19.874-14.994,13.924-32.327,6.219-41.6-9.108C620.55,306.859,616.2,290.277,611.9,274.111Z" transform="translate(-605.39 -206.574)" fill="#f0a6ca"/><path d="M614.5,224.387a270.83,270.83,0,0,1,40.765,128.789" transform="translate(-587.858 -172.302)" fill="none" stroke="#575369" stroke-linecap="round" stroke-linejoin="round" stroke-width="0.381"/></g></g><g transform="translate(0 280.255)"><path d="M803.867,574.061l-.012.02c-.526.877-1.058,1.725-1.62,2.579a94.649,94.649,0,0,1-22.973,24.365c-20.511,15.2-46.072,22.423-71.5,24.263a84.041,84.041,0,0,1-22.4-1.526c-.772-.161-1.562-.333-2.351-.509-30.011-6.737-59.142-27.979-75.653-52.276-7.941-11.693-12.266-26.643-10.12-40.28.108-.909.3-1.822.483-2.716l.012-.02a38.494,38.494,0,0,1,4.781-11.877c6.97-11.327,19.16-18.108,30.274-25.4,2.213-1.441,4.424-2.968,6.576-4.579.62-.5,1.228-.974,1.851-1.471,7.877-6.266,14.614-13.888,16.7-23.558,2.678-12.532-3.114-25.108-5.19-37.745-3.3-19.991,3.76-41.177,17.561-55.879.576-.6,1.152-1.208,1.737-1.781a62.6,62.6,0,0,1,11.585-8.982c15.219-9.09,33.718-11.786,48.422-21.7a59.788,59.788,0,0,0,7.76-6.2c.594-.541,1.164-1.091,1.731-1.675,10.918-10.868,18.33-25.344,25.251-39.356,4.757-9.617,9.64-19.482,15.684-28.3.512-.725.994-1.439,1.515-2.132a73.9,73.9,0,0,1,16.894-17.347c11.441-8.2,27.447-11.3,40.28-6.9l.021.012a21,21,0,0,1,2.231.842,29.116,29.116,0,0,1,11.3,8.336,33.409,33.409,0,0,1,7.3,19.184c.061.985.123,1.971.1,2.959.123,11.008-3.526,22.8-8.137,32.993-8.026,17.681-18.634,36.019-15.391,55.142,1.506,8.965,5.95,16.947,10.327,25,.389.664.751,1.368,1.108,2.041a96.064,96.064,0,0,1,6.953,15.081,56.5,56.5,0,0,1-2.576,41.37c-.518,1.1-1.047,2.167-1.646,3.216l-.012.021a49.059,49.059,0,0,1-5.126,7.69c-9.418,11.71-23.643,19.634-30.1,33.189-5.281,11.038-4.368,23.356-3.208,35.8.059.766.137,1.544.214,2.322a150.621,150.621,0,0,1,.9,18.239A78.025,78.025,0,0,1,803.867,574.061Z" transform="translate(-596.691 -231.076)" fill="#2dd3e3"/><g transform="translate(0.548 2.015)"><path d="M628.564,622.436c-.772-.161-1.562-.333-2.351-.509,1.436-2.769,2.848-5.5,4.24-8.245.377-.722.743-1.424,1.105-2.129,2.43-4.751,4.827-9.412,7.164-14.055a2.713,2.713,0,0,0,.208-.392c4.547-8.9,8.915-17.587,13.172-26.093.406-.813.822-1.649,1.225-2.462q13.741-27.543,25.6-52.417c.456-.947.9-1.874,1.357-2.822,16.333-34.251,30.119-64.823,41.78-92.006.468-1.1.912-2.164,1.386-3.234l.012-.021C738.7,382.261,750.2,352.4,758.847,327.6c.4-1.088.775-2.164,1.146-3.243,4.687-13.581,8.506-25.572,11.634-36.131a.889.889,0,0,1,.061-.237c8.131-27.716,11.409-45.607,12.675-56.221a21,21,0,0,1,2.231.842c-1.3,10.354-4.395,27.213-11.74,52.747l-.012.02c-.38,1.316-.76,2.631-1.164,3.988l-.012.02c-8.242,27.95-21.4,65.72-42.309,115.868-.442,1.061-.9,2.143-1.354,3.225q-10.943,26.122-24.8,56.762c-.4.9-.789,1.775-1.187,2.675l-.015.02c-9.936,21.795-21,45.353-33.388,70.805l-.012.021c-.494,1.006-.974,1.991-1.465,3q-12.631,25.889-27.1,54.39c-.488.956-.974,1.909-1.474,2.883Q634.745,610.5,628.564,622.436Z" transform="translate(-540.44 -231.765)" fill="#f0e6ef"/><path d="M695.59,310.859l-2.14.866c-.009-.032-.026-.044-.035-.076a653.775,653.775,0,0,0-33.192-69.463c.512-.725.994-1.439,1.515-2.132a655.5,655.5,0,0,1,32.824,68.352C694.918,309.216,695.245,310.032,695.59,310.859Z" transform="translate(-475.009 -215.818)" fill="#f0e6ef"/><path d="M709.673,244.424,678.06,270.7l-.012.02-.632.518-1.409-1.678-.094-.114.155-.123,3.155-2.611.012-.02,30.335-25.227C709.632,242.45,709.694,243.436,709.673,244.424Z" transform="translate(-444.821 -213.103)" fill="#f0e6ef"/><path d="M687.063,359.2l-2.211.714c-.041-.161-.111-.31-.152-.471a585.463,585.463,0,0,0-39.069-93.84c.594-.541,1.164-1.091,1.731-1.675A586.748,586.748,0,0,1,686.1,356.184l-.012.021C686.419,357.19,686.741,358.192,687.063,359.2Z" transform="translate(-503.082 -169.896)" fill="#f0e6ef"/><path d="M725.657,283.211l-63.194,30.216-.152.073-.991-2.108,2.5-1.19,60.732-29.031C724.938,281.834,725.3,282.538,725.657,283.211Z" transform="translate(-472.898 -136.715)" fill="#f0e6ef"/><path d="M745.709,304.391l-.012.021a635.928,635.928,0,0,1-91.9,29.964l-.015.02c-.3.059-.594.132-.912.213l-.552-2.251c.895-.228,1.775-.433,2.667-.658a632.182,632.182,0,0,0,92.372-30.526C746.838,302.274,746.309,303.342,745.709,304.391Z" transform="translate(-490.219 -98.227)" fill="#f0e6ef"/><path d="M689.659,428.515l-2.149.886c-.061-.173-.155-.336-.214-.506-20.722-50.2-42.706-100.638-65.437-150,.576-.6,1.152-1.208,1.737-1.781,22.587,49.066,44.455,99.109,65.057,148.964C689,426.9,689.335,427.7,689.659,428.515Z" transform="translate(-548.815 -144.526)" fill="#f0e6ef"/><path d="M730.33,330.828a559.063,559.063,0,0,0-88.559,24.809l-.515.181-.819-2.167c.933-.339,1.845-.687,2.8-1.012-.009-.032.012-.021.012-.021a559.185,559.185,0,0,1,86.869-24.113C730.176,329.272,730.254,330.05,730.33,330.828Z" transform="translate(-513.073 -45.645)" fill="#f0e6ef"/><path d="M683.184,404.849l-2,1.219c-.12-.208-.234-.383-.365-.57a427.638,427.638,0,0,0-69.536-86.231c.62-.5,1.228-.974,1.851-1.471a430.944,430.944,0,0,1,68.91,85.24C682.453,403.627,682.812,404.25,683.184,404.849Z" transform="translate(-569.16 -66.25)" fill="#f0e6ef"/><path d="M738.889,348.387c-.526.877-1.058,1.725-1.62,2.579a684.235,684.235,0,0,0-104.869,23.7c-.406.138-.822.243-1.228.38l-.62-1.912-.094-.3c.1-.026.2-.07.3-.094,1.035-.33,2.09-.649,3.114-.959A682.831,682.831,0,0,1,738.889,348.387Z" transform="translate(-532.272 -7.396)" fill="#f0e6ef"/><path d="M688.729,418.2l-1.576,1.687-.263-.24c-18.02-17-36.742-34.493-54.82-51.39-11.6-10.839-23.447-21.883-35.192-32.92.108-.909.3-1.822.483-2.716,12.131,11.348,24.347,22.774,36.294,33.929,17.932,16.783,36.47,34.087,54.341,50.969Z" transform="translate(-596.878 -37.73)" fill="#f0e6ef"/></g></g></g><g transform="translate(0 54.511)"><g transform="translate(0 102.159)"><path d="M575.269,459.3l.015.026c.605,1.135,1.172,2.257,1.728,3.418A118.915,118.915,0,0,1,588.345,503.3c3.055,31.952-5.748,64.174-20.274,92.758A105.559,105.559,0,0,1,551.89,619.2c-.672.725-1.371,1.462-2.07,2.2-26.736,27.949-68.522,45.543-105.406,47.554-17.751.965-36.66-4.079-49.952-15.242-.909-.708-1.769-1.506-2.614-2.281l-.015-.026a48.449,48.449,0,0,1-9.69-12.856c-7.678-14.862-7.067-32.394-7.707-49.092-.114-3.319-.325-6.69-.664-10.055-.132-.991-.251-1.956-.383-2.944-1.635-12.552-5.474-24.76-14.535-33.277-11.76-11.02-29.066-12.944-44.022-18.906-23.672-9.43-41.911-30.777-48.788-55.183-.278-1.012-.553-2.023-.789-3.026a78.6,78.6,0,0,1-2.161-18.306c.088-22.292,9.19-43.967,8.061-66.238a75.4,75.4,0,0,0-1.646-12.383c-.2-.988-.418-1.965-.681-2.95-4.62-18.815-15.4-36.195-26-52.741-7.269-11.365-14.728-23.026-20.306-35.262-.444-1.023-.9-2-1.31-3.012a92.938,92.938,0,0,1-7.722-29.458c-1.409-17.649,5.64-36.9,18.71-47.861l.026-.015a26.162,26.162,0,0,1,2.357-1.857,36.611,36.611,0,0,1,16.31-6.763c8.979-1.316,17.532.611,25.4,4.593,1.1.573,2.2,1.146,3.251,1.81,11.938,7.014,22.274,18.6,30.254,30.178,13.839,20.122,26.7,43.446,49.408,52.364,10.631,4.2,22.113,4.593,33.625,5.1.968.015,1.965.079,2.921.132a121.423,121.423,0,0,1,20.757,2.3,71.045,71.045,0,0,1,42.888,29.628c.845,1.269,1.652,2.529,2.395,3.857l.012.026a61.71,61.71,0,0,1,4.959,10.514c6.5,17.742,5.8,38.207,16.21,53.961,8.459,12.85,22.321,19.865,36.476,26.686.863.436,1.751.857,2.637,1.278a189.611,189.611,0,0,1,20.23,10.868C556.36,431.616,567.425,444.5,575.269,459.3Z" transform="translate(-213.309 -188.808)" fill="#fec300"/><g transform="translate(7.9 5.004)"><path d="M539.445,614.479c-.672.725-1.371,1.462-2.07,2.2-2.055-3.345-4.079-6.64-6.131-9.918-.535-.874-1.053-1.725-1.573-2.573-3.544-5.7-7.006-11.307-10.491-16.839a3.307,3.307,0,0,0-.289-.477c-6.634-10.675-13.155-21.014-19.552-31.122-.614-.965-1.243-1.956-1.86-2.918q-20.745-32.675-39.847-61.586c-.722-1.108-1.433-2.187-2.155-3.292-26.292-39.821-50.271-74.513-71.983-104.714-.883-1.219-1.74-2.386-2.582-3.593l-.015-.026c-28.654-39.654-53.352-71.407-74.463-96.825-.906-1.14-1.827-2.24-2.745-3.339-11.587-13.865-22.023-25.76-31.368-35.981-.094-.053-.146-.155-.213-.216-24.575-26.751-41.718-41.888-52.329-50.142a26.162,26.162,0,0,1,2.357-1.857c10.307,8.117,26.458,22.394,49.192,46.879l.015.023c1.172,1.263,2.342,2.526,3.544,3.842l.015.026c24.751,27.017,56.9,65.7,97.337,120.769.857,1.167,1.725,2.36,2.6,3.553q21.03,28.74,45.04,63.551c.708,1.015,1.4,2,2.111,3.017l.012.026c17.029,24.847,35.218,52.057,54.6,81.916l.012.026c.766,1.184,1.517,2.339,2.281,3.523q19.684,30.407,41,64.484c.711,1.146,1.421,2.289,2.146,3.462Q530.606,600.074,539.445,614.479Z" transform="translate(-208.764 -189.092)" fill="#f0e6ef"/><path d="M314.245,227.837l-.459,2.863c-.041-.012-.064,0-.105-.009a821.772,821.772,0,0,0-96.36-9.333c-.444-1.023-.9-2-1.31-3.012a823.216,823.216,0,0,1,94.924,9.006C312.038,227.492,313.128,227.67,314.245,227.837Z" transform="translate(-216.011 -136.986)" fill="#f0e6ef"/><path d="M238.1,192.33l7.789,51.1.015.026.143,1.015-2.722.43-.181.029-.032-.246-.766-5.1-.015-.023-7.482-49.048C235.948,191.093,237.051,191.666,238.1,192.33Z" transform="translate(-179.769 -190.52)" fill="#f0e6ef"/><path d="M360.682,268.544l-.67,2.845c-.2-.061-.406-.082-.605-.14-43.627-10.234-85.132-16.429-126.429-18.824-.2-.988-.418-1.965-.681-2.95a737.438,737.438,0,0,1,124.514,18.154l.015.026C358.1,267.935,359.393,268.24,360.682,268.544Z" transform="translate(-184.678 -77.099)" fill="#f0e6ef"/><path d="M283.208,221.246l-8.47,87.676-.021.211-2.912-.3.336-3.462,8.146-84.255C281.255,221.129,282.252,221.193,283.208,221.246Z" transform="translate(-108.669 -131.66)" fill="#f0e6ef"/><path d="M318.353,235.935l.012.026A799.277,799.277,0,0,1,290.995,354.4l.012.026c-.132.368-.24.725-.36,1.12l-2.784-.865c.336-1.108.684-2.19,1.02-3.3a795.708,795.708,0,0,0,27.075-119.3C316.8,233.347,317.611,234.607,318.353,235.935Z" transform="translate(-77.775 -110.567)" fill="#f0e6ef"/><path d="M437.026,310.743l-.444,2.889c-.222-.044-.459-.053-.684-.1-67.513-10.263-136.107-19.318-204.032-26.876-.278-1.012-.553-2.023-.789-3.026,67.5,7.517,135.6,16.441,202.667,26.61C434.859,310.41,435.935,310.565,437.026,310.743Z" transform="translate(-187.029 -11.38)" fill="#f0e6ef"/><path d="M341.123,265.862A703.5,703.5,0,0,0,310.37,377.35l-.138.67-2.865-.523c.24-1.222.456-2.433.722-3.669-.038-.012-.012-.026-.012-.026a703.6,703.6,0,0,1,30.409-109.216C339.349,265.02,340.237,265.441,341.123,265.862Z" transform="translate(-40.252 -48.029)" fill="#f0e6ef"/><path d="M407.285,314.906l.015,2.944c-.3-.006-.561,0-.848.023A537.813,537.813,0,0,0,268.441,336.8c-.132-.991-.251-1.956-.383-2.944a541.747,541.747,0,0,1,136.534-18.9C405.5,314.9,406.4,314.918,407.285,314.906Z" transform="translate(-115.878 48.786)" fill="#f0e6ef"/><path d="M366.088,281.329c.605,1.135,1.172,2.257,1.728,3.418a860.482,860.482,0,0,0-42.54,128.333c-.114.523-.272,1.038-.389,1.564l-2.459-.573-.383-.094c.035-.12.058-.263.094-.383.319-1.327.661-2.672.991-3.977A858.749,858.749,0,0,1,366.088,281.329Z" transform="translate(-12.013 -15.813)" fill="#f0e6ef"/><path d="M425.844,332.368l.8,2.792-.43.129c-30,8.377-61,17.187-90.933,25.692-19.2,5.456-38.785,11.049-58.294,16.538-.909-.708-1.769-1.506-2.614-2.281,20.093-5.7,40.329-11.447,60.1-17.073,29.713-8.421,60.384-17.157,90.167-25.45Z" transform="translate(-103.732 82.381)" fill="#f0e6ef"/></g></g><path d="M276.164,620.078c-2.585-11.529-3.2-23.8.561-35s12.432-21.151,23.8-24.365c7.649-2.161,16.736-1.576,22.342-7.213,8.988-9.044,1.094-24.049-6.471-34.312-13.6-18.45-26.213-39.657-25.043-62.551s22.146-45.82,44.508-40.771c7.362,1.661,13.868,6.009,21.146,8s16.549.7,20.037-5.994c2.333-4.477,1.345-9.886.272-14.818-13.637-62.753-31.856-126.973-20.438-190.164,4.655-25.754,18.576-54.4,44.414-58.548,13.266-2.132,26.941,3.1,37.379,11.564s18.046,19.888,24.619,31.6a274.954,274.954,0,0,1,32.841,99.345c1.225,9.6,3.871,21.555,13.33,23.573,10.058,2.146,17.245-8.892,24.935-15.719,17.874-15.862,48.487-8.889,63.156,9.976s15.947,45.268,10.392,68.51-17.07,44.54-26.146,66.644c-3.047,7.418-5.169,17.453,1.3,22.2,7.3,5.357,16.9-1.708,25.575-4.31,12.374-3.708,26.16,2.854,33.932,13.169s10.482,23.613,11.14,36.514c3.009,58.838-33.558,114.894-83.006,146.923-43.969,28.482-93.948,37.461-144.967,44.016-38.522,4.95-75.589-2.664-107.681-26.145C297.529,667.153,281.775,645.107,276.164,620.078Z" transform="translate(-96.424 -153.869)" fill="#3065f2"/></g></g><g transform="translate(228.976)"><g transform="translate(0 251.254)"><path d="M323.17,351.887l.351,120.71c.032,10.28,11.444,12.953,14.473,3.386l37.932-119.8S323.17,351.273,323.17,351.887Z" transform="translate(-230.924 36.154)" fill="#9c89b8"/><path d="M649.966,351.887l-.351,120.71c-.029,10.28-11.441,12.953-14.471,3.386l-37.932-119.8S649.966,351.273,649.966,351.887Z" transform="translate(296.306 36.154)" fill="#9c89b8"/><path d="M25.665,0h850.9a19.324,19.324,0,0,1,19.324,19.324V248.713a0,0,0,0,1,0,0H0a0,0,0,0,1,0,0V25.665A25.665,25.665,0,0,1,25.665,0Z" transform="translate(80.084)" fill="#9db4f2"/><g transform="translate(91.749 238.349)"><path d="M0,0H851.787a0,0,0,0,1,0,0V75.319A13.507,13.507,0,0,1,838.28,88.826H13.507A13.507,13.507,0,0,1,0,75.319V0A0,0,0,0,1,0,0Z" transform="translate(0 33.201)" fill="#9db4f2"/><g transform="translate(5.972 101.805)"><rect width="835.115" height="88.7" rx="6.623" fill="#9db4f2"/><rect width="835.115" height="88.7" rx="6.623" fill="#9db4f2" opacity="0.11" style="mix-blend-mode:multiply;isolation:isolate"/></g><path d="M343.743,300.656l819.188,3.594,11.026,19.847c6.839,12.313-1.947,27.526-15.9,27.526h-816.7c-15.312,0-23.809-17.953-14.219-30.04Z" transform="translate(-322.84 -300.656)" fill="#b8bedd"/><path d="M343.743,300.656l819.188,3.594,11.026,19.847c6.839,12.313-1.947,27.526-15.9,27.526h-816.7c-15.312,0-23.809-17.953-14.219-30.04Z" transform="translate(-322.84 -300.656)" fill="#8ba0d7" opacity="0.43" style="mix-blend-mode:multiply;isolation:isolate"/></g><g transform="translate(887.506 122.775)"><path d="M595.693,379.979s-5.971-61.99,21.9-93.74,61.215-24.192,61.215-24.192,57.732,11.09,77.638,57.455L642.476,399.13S616.1,388.043,595.693,379.979Z" transform="translate(-595.156 -260.876)" fill="#9db4f2"/><path d="M595.693,380.232s-5.971-61.99,21.9-93.74S680.3,261.8,680.3,261.8s56.238,11.593,76.144,57.957l-113.97,79.629S616.1,388.3,595.693,380.232Z" transform="translate(-595.156 -261.129)" fill="#9db4f2" opacity="0.34" style="mix-blend-mode:multiply;isolation:isolate"/><g transform="translate(28.656 44.261)"><path d="M604.957,538.15c1.816-43.394,4.091-86.907,10.918-129.815,6.067-38.128,14.266-82.182,42.472-110.038,18.853-18.614,66.4-36.563,81.828-4.047,3.447,7.263,4.377,15.517,4.646,23.6,1.836,55.235-17.807,110.365-35.35,164.039-6.558,20.064-19.038,61.609-40.686,59.721Z" transform="translate(-604.957 -276.266)" fill="#9db4f2"/><path d="M604.957,538.15c1.816-43.394,4.091-86.907,10.918-129.815,6.067-38.128,14.266-82.182,42.472-110.038,18.853-18.614,66.4-36.563,81.828-4.047,3.447,7.263,4.377,15.517,4.646,23.6,1.836,55.235-17.807,110.365-35.35,164.039-6.558,20.064-19.038,61.609-40.686,59.721Z" transform="translate(-604.957 -276.266)" fill="#9db4f2" opacity="0.21" style="mix-blend-mode:multiply;isolation:isolate"/></g></g><g transform="translate(0 119.752)"><path d="M454.888,378.945s5.971-61.99-21.9-93.74-61.215-24.192-61.215-24.192-57.729,11.087-77.638,57.455L408.106,398.1S434.482,387.009,454.888,378.945Z" transform="translate(-286.784 -259.842)" fill="#9db4f2"/><path d="M454.888,379.2s5.971-61.99-21.9-93.74-62.706-24.7-62.706-24.7-56.238,11.59-76.147,57.957l113.971,79.629S434.482,387.262,454.888,379.2Z" transform="translate(-286.784 -260.095)" fill="#9db4f2" opacity="0.34" style="mix-blend-mode:multiply;isolation:isolate"/><g transform="translate(0 44.261)"><path d="M431.895,539.82c-1.816-43.391-4.38-89.612-11.207-132.52-6.064-38.128-14.266-82.182-42.473-110.038-18.85-18.614-66.4-36.563-81.828-4.047-3.447,7.263-4.377,15.517-4.646,23.6-1.836,55.235,17.807,110.365,35.35,164.039,6.558,20.064,19.037,61.609,40.686,59.721Z" transform="translate(-291.621 -275.232)" fill="#9db4f2"/><path d="M431.895,540.326c-1.816-43.391-4.38-90.117-11.207-133.026-6.064-38.128-14.266-82.182-42.473-110.038-18.85-18.614-66.4-36.563-81.828-4.047-3.447,7.263-4.377,15.517-4.646,23.6-1.836,55.235,17.807,110.365,35.35,164.039,6.558,20.064,19.037,61.609,40.686,59.721Z" transform="translate(-291.621 -275.232)" fill="#9db4f2" opacity="0.21" style="mix-blend-mode:multiply;isolation:isolate"/></g></g><g transform="translate(225.625 61.956)"><path d="M385.708,250.277a8.461,8.461,0,1,1-8.459-8.57A8.513,8.513,0,0,1,385.708,250.277Z" transform="translate(-368.787 -237.675)" fill="#b8bedd" opacity="0.43" style="mix-blend-mode:multiply;isolation:isolate"/><path d="M412.432,269.752a8.461,8.461,0,1,1-8.462-8.567A8.516,8.516,0,0,1,412.432,269.752Z" transform="translate(-317.373 -200.201)" fill="#b8bedd" opacity="0.43" style="mix-blend-mode:multiply;isolation:isolate"/><ellipse cx="8.461" cy="8.568" rx="8.461" ry="8.568" transform="translate(231.424 60.983)" fill="#b8bedd" opacity="0.43" style="mix-blend-mode:multiply;isolation:isolate"/><ellipse cx="8.461" cy="8.568" rx="8.461" ry="8.568" transform="translate(145.325 0.001)" fill="#b8bedd" opacity="0.43" style="mix-blend-mode:multiply;isolation:isolate"/><ellipse cx="8.461" cy="8.568" rx="8.461" ry="8.568" transform="translate(297.118 4.033)" fill="#b8bedd" opacity="0.43" style="mix-blend-mode:multiply;isolation:isolate"/><ellipse cx="8.461" cy="8.568" rx="8.461" ry="8.568" transform="translate(375.255 60.983)" fill="#b8bedd" opacity="0.43" style="mix-blend-mode:multiply;isolation:isolate"/><ellipse cx="8.461" cy="8.568" rx="8.461" ry="8.568" transform="translate(442.442 0.001)" fill="#b8bedd" opacity="0.43" style="mix-blend-mode:multiply;isolation:isolate"/><ellipse cx="8.461" cy="8.568" rx="8.461" ry="8.568" transform="translate(513.611 60.983)" fill="#b8bedd" opacity="0.43" style="mix-blend-mode:multiply;isolation:isolate"/><path d="M584.349,248.9a8.462,8.462,0,1,1-8.462-8.57A8.516,8.516,0,0,1,584.349,248.9Z" transform="translate(13.372 -240.328)" fill="#b8bedd" opacity="0.43" style="mix-blend-mode:multiply;isolation:isolate"/><path d="M385.708,290.436a8.461,8.461,0,1,1-8.459-8.567A8.513,8.513,0,0,1,385.708,290.436Z" transform="translate(-368.787 -160.407)" fill="#b8bedd" opacity="0.43" style="mix-blend-mode:multiply;isolation:isolate"/><ellipse cx="8.461" cy="8.568" rx="8.461" ry="8.568" transform="translate(145.325 117.428)" fill="#b8bedd" opacity="0.43" style="mix-blend-mode:multiply;isolation:isolate"/><path d="M487.325,290.436a8.461,8.461,0,1,1-8.459-8.567A8.513,8.513,0,0,1,487.325,290.436Z" transform="translate(-173.286 -160.407)" fill="#b8bedd" opacity="0.43" style="mix-blend-mode:multiply;isolation:isolate"/><ellipse cx="8.461" cy="8.568" rx="8.461" ry="8.568" transform="translate(442.442 117.428)" fill="#b8bedd" opacity="0.43" style="mix-blend-mode:multiply;isolation:isolate"/><path d="M584.349,289.057a8.462,8.462,0,1,1-8.462-8.567A8.516,8.516,0,0,1,584.349,289.057Z" transform="translate(13.372 -163.061)" fill="#b8bedd" opacity="0.43" style="mix-blend-mode:multiply;isolation:isolate"/></g></g><g transform="translate(114.967)"><g transform="translate(0 34.244)"><g transform="translate(21.606 395.398)"><g transform="translate(213.372 254.441)"><path d="M419.742,386.411s-10.637,21.836-8.023,36.02,13.438,16.049,27.993,15.675,54.311,3.547,70.361,4.3,36.581-3.36,28-17.172-81-50.016-81-50.016Z" transform="translate(-411.306 -351.696)" fill="#575369"/><path d="M420.164,367.17l-5.974,34.715s16.424,5.6,26.5-.374,10.824-10.824,10.824-10.824l2.24-22.023Z" transform="translate(-405.754 -367.17)" fill="#ff99a8"/></g><g transform="translate(101.769 290.275)"><path d="M380.922,379.8l-2.986,30.981,35.087-.373.746-30.981Z" transform="translate(-363.902 -379.425)" fill="#ff99a8"/><path d="M388.416,385.851s-1.246,9.953.248,9.953,17.543-10.45,27.248-8.585,13.438,8.213,14.93,12.318,36.455,57.981,32.35,63.206-13.368,10.734-34.59.249c-21.151-10.45-52.753-20.529-54.993-29.113S377.217,397.05,388.416,385.851Z" transform="translate(-373.136 -367.064)" fill="#575369"/></g><path d="M342.528,296.822s-11.2,24.637,2.985,54.5,79.132,51.51,79.132,51.51-.746,44.046,12.69,101.529,15.678,73.159,15.678,73.159l41.06-3.731s8.959-97.8,15.675-129.151,16.423-61.96,11.2-76.144-8.959-14.932-8.959-14.932L595.6,369.235s-28.368,51.51-31.353,108.994-2.988,62.706-2.988,62.706l40.315,4.479s66.44-147.812,71.665-174.685,1.494-55.99-20.9-62.709-147.812-23.143-147.812-23.143S385.825,268.454,342.528,296.822Z" transform="translate(-338.33 -280.149)" fill="#575369"/><g transform="translate(6.83 11.234)"><path d="M342.838,283.991a77.836,77.836,0,0,0,59.893,94.731c4.634.956,10.19,1.2,13.313-2.357,1.716-1.95,2.278-4.629,3.4-6.971s3.362-4.6,5.927-4.181c3.476.57,4.316,5.123,4.357,8.649a865.05,865.05,0,0,0,24.3,194.2" transform="translate(-340.666 -283.991)" fill="none" stroke="#f0e6ef" stroke-linecap="round" stroke-linejoin="round" stroke-width="0.25" opacity="0.55"/><path d="M394.423,299.145a511.289,511.289,0,0,0,93.7,20.7c3.178.395,6.883,1.111,8.286,3.991,1.24,2.544.047,5.547-1.111,8.131a399.456,399.456,0,0,0-34.862,172.118" transform="translate(-237.243 -254.836)" fill="none" stroke="#f0e6ef" stroke-linecap="round" stroke-linejoin="round" stroke-width="0.25" opacity="0.55"/><path d="M384.191,288.4s44.046,46.285,48.525,64.2" transform="translate(-256.928 -275.501)" fill="none" stroke="#f0e6ef" stroke-linecap="round" stroke-linejoin="round" stroke-width="0.25"/><path d="M375.146,310.362a168.266,168.266,0,0,0-7.465,37.326c-1.266,16.88,6.968,66.688,15.926,110.485s13.187,61.215,13.187,61.215" transform="translate(-288.941 -233.256)" fill="none" stroke="#f0e6ef" stroke-linecap="round" stroke-linejoin="round" stroke-width="0.25"/><path d="M470.866,304.4s-15.924,8.959-23.391,20.9-23.888,47.279-28.865,99.038-3.982,69.925-3.982,69.925" transform="translate(-198.528 -244.719)" fill="none" stroke="#f0e6ef" stroke-linecap="round" stroke-linejoin="round" stroke-width="0.25"/></g></g><g transform="translate(158.55 187.615)"><path d="M426.36,209.085S437.31,227,439.3,270.8s3.482,50.765,3.482,50.765l26.379,4.977s-16.423,19.412-10.95,45.788c0,0-62.709,14.929-71.17,1.991s14.435-133.379,14.435-133.379Z" transform="translate(-385.167 -209.085)" fill="#ffcdb2"/><g transform="translate(10.887 111.868)"><path d="M417.213,247.345A42.926,42.926,0,0,0,398.3,268.789" transform="translate(-370.778 -247.345)" fill="none" stroke="#b57f9b" stroke-linecap="round" stroke-linejoin="round" stroke-width="0.25"/><path d="M388.89,255.689c3.471,10.947,14.6,18.043,25.906,20.076s22.894-.073,34.186-2.175" transform="translate(-388.89 -231.292)" fill="none" stroke="#b57f9b" stroke-linecap="round" stroke-linejoin="round" stroke-width="0.25"/><path d="M420.658,248.378a58.811,58.811,0,0,0-14.467,50.99" transform="translate(-357.718 -245.358)" fill="none" stroke="#b57f9b" stroke-linecap="round" stroke-linejoin="round" stroke-width="0.25"/></g><g transform="translate(71.023 73.636)"><path d="M419.193,281.323l69.054-2.988s1.868-10.076,13.064-18.663,35.087-26.128,39.941-25.379,2.985,6.345,1.12,8.956-15.678,17.543-15.678,17.543,13.438,2.988,15.678,2.614,37.362-9.362,39.566-6.719c4.2,5.041-1.588,8.491-1.588,8.491s2.333,3.082,1.213,6.441-6.158,5.319-6.158,5.319,2.494,5.245-1.868,8.678a69.681,69.681,0,0,1-7.465,5.225s2.8,5.038-.187,8.772-27.993,9.33-36.952,8.959-34.341-7.839-34.341-7.839L411.48,323.875A47.553,47.553,0,0,1,419.193,281.323Z" transform="translate(-409.457 -234.269)" fill="#ff99a8"/><g transform="translate(103.549 26.522)"><path d="M458.559,243.34s-3.982,7.093-13.687,14.558" transform="translate(-444.872 -243.34)" fill="none" stroke="#b57f9b" stroke-linecap="round" stroke-linejoin="round" stroke-width="0.25"/><path d="M453.425,252.155a247.854,247.854,0,0,0,42.376-7.479" transform="translate(-428.417 -240.77)" fill="none" stroke="#b57f9b" stroke-linecap="round" stroke-linejoin="round" stroke-width="0.25"/><path d="M453.213,254.722c13.4.737,25.631-2.737,38.072-5.722" transform="translate(-428.825 -232.451)" fill="none" stroke="#b57f9b" stroke-linecap="round" stroke-linejoin="round" stroke-width="0.25"/><path d="M452.7,257.412c10.38,0,18.912-.249,30.359-3.731" transform="translate(-429.808 -223.445)" fill="none" stroke="#b57f9b" stroke-linecap="round" stroke-linejoin="round" stroke-width="0.25"/><path d="M455.794,246.147a100.266,100.266,0,0,1-3.637,31.28" transform="translate(-430.856 -237.94)" fill="none" stroke="#b57f9b" stroke-linecap="round" stroke-linejoin="round" stroke-width="0.25"/></g></g></g><path d="M395.232,197.372a1.221,1.221,0,0,1-.146-.059v-.088Z" transform="translate(-207.533 -44.285)" fill="#ff5d80"/><g transform="translate(14.99 145.573)"><path d="M523.806,290c0,.7,0,1.374-.029,2.134v.117c-.556,25.672-17.836,75.144-20.555,85.846-.146.643-.263,1.14-.322,1.491-.76,4.941-1.52,8.772.643,15.877a62.192,62.192,0,0,0,2.836,7.514c5.5,12.456,2.485,53.244,2.485,53.244s-26.374-.5-64.677-3.479c-38.332-2.982-72.659,5.468-88.1,10.468-15.438,4.971-17.426.5-17.426.5-12.427-27.894,23.391-75.67,30.35-90.085C376,359.175,372.524,227.8,372.524,227.8a33.634,33.634,0,0,1,5.234-5.585c.176-.146.38-.322.585-.5,15.731-13.362,49.414-27.017,49.414-27.017l.2.088h.029l.38.117,73.039,24.912,1.14.994.672.585,14.532,12.69.877.76,2.193,1.9s1.286,13.888,2.193,31.49a.041.041,0,0,1,0,.059C523.368,275.172,523.66,282.6,523.806,290Z" transform="translate(-336.068 -194.706)" fill="#8093f1"/><path d="M424.823,274.794a60.509,60.509,0,0,1-10.672,11.2,45.138,45.138,0,0,1-24.707,10.263,16.522,16.522,0,0,1-7.748-.965c-2.4-1.082-4.444-3.275-4.678-5.877-.5-4.912,4.824-8.158,9.444-9.912,8.655-3.333,17.66-5.935,25.73-10.526,5.614-3.216,8.918-7.105,12.31-11.549-.146.643-.263,1.14-.322,1.491C423.42,263.859,422.659,267.689,424.823,274.794Z" transform="translate(-257.347 -74.039)" opacity="0.25" fill="url(#a)" style="mix-blend-mode:multiply;isolation:isolate"/><g transform="translate(41.69 0.064)"><path d="M369.507,313.592a.525.525,0,0,1-.263.117.371.371,0,0,1-.263-.117.4.4,0,0,1-.029-.526,68.913,68.913,0,0,0-18.625-108.623c.176-.146.38-.322.585-.5a69.638,69.638,0,0,1,18.6,109.646Z" transform="translate(-350.326 -176.993)" fill="#f0e6ef"/><path d="M428.115,294.237a.361.361,0,0,1-.284-.137,435.928,435.928,0,0,1-60.378-98.863.362.362,0,0,1,.184-.479.367.367,0,0,1,.482.187A435.537,435.537,0,0,0,428,293.15c8.728-22.85,11.813-48.291,14.225-72.4a.338.338,0,0,1,.4-.328.362.362,0,0,1,.325.4c-2.436,24.374-5.564,50.1-14.5,73.188a.362.362,0,0,1-.284.228Z" transform="translate(-317.439 -194.728)" fill="#f0e6ef"/><path d="M404.258,264.081c0,.7,0,1.374-.029,2.134a415.5,415.5,0,0,0-6.023-58.039l.877.76q2.895,16.578,4.386,33.391a.041.041,0,0,1,0,.059C403.82,249.257,404.112,256.684,404.258,264.081Z" transform="translate(-258.21 -168.855)" fill="#f0e6ef"/></g></g><g transform="translate(106.676)"><g transform="translate(5.262)"><path d="M490.185,245.8c-2.31,3.6-7.69,2.982-10.088,3.86a.613.613,0,0,0-.234.175.87.87,0,0,0-.2.322,3.16,3.16,0,0,0-.175.322.221.221,0,0,1-.029.117,4.925,4.925,0,0,0-.263.936c-.058.234-.088.468-.117.643-.5.029-1.111.146-1.871.234a16.516,16.516,0,0,1-6.959-.585,25.012,25.012,0,0,0-3.743-1.14,4.366,4.366,0,0,0-3.655.936c-1.14,1.14-1.2,2.924-1.023,4.5a27.148,27.148,0,0,0,6.93,15.321c1.579,1.725,3.772,3.362,6.082,2.924.058,0,.088-.029.146-.059a37.4,37.4,0,0,1-1.754,5.468c-.117.263-.234.526-.351.76a.988.988,0,0,1-.175.351,8.84,8.84,0,0,1-.526,1.053,3.054,3.054,0,0,1-.38.672,6.6,6.6,0,0,1-.468.76,8.978,8.978,0,0,1-.789,1.053,6.134,6.134,0,0,1-.7.819c-.234.234-.5.468-.76.7a9.485,9.485,0,0,1-1.667,1.17c-1.608.877-4.035,1.111-6.842.906-.468-.029-.965-.058-1.462-.117-.731-.058-1.491-.175-2.251-.292-.906-.146-1.813-.292-2.719-.5a127.475,127.475,0,0,1-17.485-5.058,2.019,2.019,0,0,0-.292-.117h-.029a1.221,1.221,0,0,1-.146-.059v-.5l-.029.058-.146.2-8.011,11.491-1.316,1.9L419.017,306s-11.7-4.708-26.14-16.169c-13.8-10.935-19.151-21.637-19.151-21.637l9.941-19.649c.409-1.462-1.228-6.023-1.725-7.485-2.544-7.134-3.012-11.257-3.83-18.8-2.982-27.28,11.2-57.455,38.186-66.489,1.111-.351,2.222-.673,3.362-.994,28.011-7.368,57.747,13.3,61.782,41.753a79.2,79.2,0,0,1,.234,14.181c-.117,3.275-1.111,8.245.409,11.315C485.243,228.339,493.547,240.561,490.185,245.8Z" transform="translate(-360.564 -128.847)" fill="#ff99a8"/><path d="M488.328,155.925c-6.377-2.085-13.307.281-20.008-.07-7.97-.418-15.157-4.626-22.526-7.7s-16.163-4.965-23.067-.959c-5.006,2.906-8.181,8.491-13.488,10.8-6.409,2.784-14.669.208-20.219,4.453-4.643,3.55-5.216,10.234-8.128,15.3-2.678,4.664-7.374,7.959-9.81,12.751-3.2,6.3-1.883,14.035,1.079,20.453,1.859,4.029,4.357,7.883,5,12.272.749,5.082-1.088,10.155-1.523,15.274-.8,9.374,3.754,19.295,11.991,23.841a19.334,19.334,0,0,0,4.74,1.757c4.538,3.909,14.3,3.611,19.394,2.807a33.242,33.242,0,0,0,15.026-6.348c1.43-1.1,2.9-2.634,2.646-4.418-.4-2.845-4.324-3.254-6.6-5.009a6.119,6.119,0,0,1-1.348-1.515c2.781-.646,5.824-.7,8.2-2.26,3.968-2.593,4.45-8.161,4.108-12.886-.105-1.491-.231-3.032-.275-4.561a11.452,11.452,0,0,1,2.213,1.652c2.33,2.342,2.927,5.839,4.257,8.862,3.006,6.833,13.766,8.544,15.084-.471.57-3.889-1.743-8.45.757-11.482,1.3-1.582,3.479-2.07,5.3-3.02a10.928,10.928,0,0,0,5.453-11.666c-.941-4.33-4.529-7.883-4.789-12.3-.17-2.918,1.152-5.7,1.614-8.585a9.537,9.537,0,0,0,.1-1.743c.286.123.558.24.789.342,3.357,1.485,6.093,4.14,8.889,6.447,4.175,3.444,10.152,6.389,14.751,3.535,2.769-1.719,4.07-5.067,4.614-8.283s.523-6.538,1.506-9.646c.994-3.143,2.971-5.909,3.93-9.064C500.231,167.091,495.67,158.325,488.328,155.925Z" transform="translate(-369.225 -144.919)" fill="#382b31"/><g transform="translate(73.69 74.658)"><path d="M427.294,193.227a16.241,16.241,0,0,1-1.716,6.593c-.076.167-.175.354-.272.518a16.41,16.41,0,1,1,1.988-7.111Z" transform="translate(-394.427 -159.657)" fill="url(#b)"/><g transform="translate(20.049)"><g transform="translate(10.34 13.178)"><path d="M404.822,178.817a3.957,3.957,0,1,0,4.055-3.857A3.959,3.959,0,0,0,404.822,178.817Z" transform="translate(-404.821 -174.96)" fill="#382b31"/><path d="M412.145,177.625l-5.269,5.2S411.376,188.189,412.145,177.625Z" transform="translate(-400.866 -169.832)" fill="url(#c)"/></g><path d="M401.31,178.614a10.349,10.349,0,0,1,3.968-5.362,14.633,14.633,0,0,1,6.076-2.576,13.66,13.66,0,0,1,6.74.456,8.643,8.643,0,0,1,5.269,4.4.67.67,0,0,1-.345.883.744.744,0,0,1-.26.056h-.05a35.166,35.166,0,0,0-5.4.444l-4.693.789-4.839.892-5.57.956-.038.006a.752.752,0,0,1-.868-.614A.78.78,0,0,1,401.31,178.614Z" transform="translate(-401.284 -170.453)" fill="#382b31"/><g transform="translate(24.052 36.419)"><path d="M415.173,187.5l-4.348-.322c-.611-.953.415-2.69,1.447-3.766a.3.3,0,0,0,.023-.4.293.293,0,0,0-.412-.041,8.38,8.38,0,0,0-1.778,1.959,2.953,2.953,0,0,0-.339,2.93l.012.02a.7.7,0,0,0,.053.088l.029.018a.579.579,0,0,0,.485.4l3.52.26-.947,1.126a.622.622,0,0,0,.766.95.593.593,0,0,0,.184-.149l1.731-2.055a.617.617,0,0,0,.1-.64A.623.623,0,0,0,415.173,187.5Z" transform="translate(-409.51 -182.908)" fill="#382b31"/></g></g></g><path d="M405.626,207.986l-.672.994c-.468-.175-.848-.322-1.111-.409a2.019,2.019,0,0,0-.292-.117h-.029a1.221,1.221,0,0,1-.146-.059v-.5l-.029.058-.146.2-8.011,11.491a30.819,30.819,0,0,1-1.842-28.186,67.173,67.173,0,0,0,11.052,15.35A15.6,15.6,0,0,0,405.626,207.986Z" transform="translate(-327.758 -55.367)" fill="url(#d)"/><g transform="translate(50.978 77.271)"><path d="M414.529,195.094s-3.52-33.967-19.154-20.654c-16.62,14.155-6.275,34.59,4.623,35.335S414.529,195.094,414.529,195.094Z" transform="translate(-386.66 -171.346)" fill="#ff99a8"/><g transform="translate(6.925 9.938)"><path d="M397.656,174.745c-5.912,2.76-8.541,7.038-8.628,13.561" transform="translate(-389.028 -174.745)" fill="none" stroke="#382b31" stroke-linecap="round" stroke-linejoin="round" stroke-width="0.35"/><path d="M390.255,176.087a17.427,17.427,0,0,1,4.254,8.649" transform="translate(-386.667 -172.163)" fill="none" stroke="#382b31" stroke-linecap="round" stroke-linejoin="round" stroke-width="0.35"/></g></g><g transform="translate(66.146 70.25)"><path d="M395.673,189.479c-.328,2.743-.921,5.538-.322,8.234s2.845,5.289,5.6,5.158a5.658,5.658,0,0,0,4.433-3.076,13.546,13.546,0,0,0,1.374-5.424,95.326,95.326,0,0,0-.278-15.365,18.335,18.335,0,0,0-1.172-6.181,6.2,6.2,0,0,0-4.652-3.851c-2.731-.313-5.222,1.968-6.108,4.573C392.644,179.167,396.342,183.865,395.673,189.479Z" transform="translate(-387.709 -168.945)" fill="#382b31"/><g transform="translate(0 22.248)"><path d="M421.281,188.114a3.49,3.49,0,0,0-.117.848,2.624,2.624,0,0,1-.351,1.082c-.322.556-1.023.292-1.55.263-.731-.058-1.462-.088-2.164-.146-1.667-.117-3.363-.234-5.029-.322l-2.69-.088a6.6,6.6,0,0,0-2.4.088c-.5.175.117,1.52.234,1.784a21.178,21.178,0,0,0,2.047,3.743,28.691,28.691,0,0,0,3.3,4.21c1.491,1.608,3.362,2.573,5.351,3.918.439.292.585.5.468.994-.088.468-.2.965-.292,1.462-.292,1.433-.556,2.895-.965,4.3a.152.152,0,0,1-.117.059l-.029.029c-.1.018-.2-.015-.3,0a4,4,0,0,1-.857,0,4.7,4.7,0,0,1-1.143-.26l-.053-.02a5.436,5.436,0,0,1-.746-.272,11.373,11.373,0,0,1-3.041-2.368,27.025,27.025,0,0,1-6.988-15.35c-.175-1.579-.117-3.362,1.023-4.5a3.576,3.576,0,0,1,2.193-.936,5.1,5.1,0,0,1,1.491,0,25.716,25.716,0,0,1,3.8,1.14h.058a16.516,16.516,0,0,0,6.959.585,8.59,8.59,0,0,0,1.023-.146c.322-.029.585-.088.848-.088Z" transform="translate(-368.889 -157.291)" fill="#ff99a8"/><path d="M441.608,198.342a9.745,9.745,0,0,0-7.427-2.047,18.415,18.415,0,0,0-7.368,2.69c-1.9,1.111-3.83,2.456-6.052,2.427-2.895,0-5.292-2.368-6.7-4.912-1.374-2.573-2.164-5.438-3.8-7.865-1.4-2.076-5.7-13.011-8.45-12.017-3.1,1.111-3.479,14.181-3.772,17.046-.409,3.859.117,7.807-.731,11.608-.7,3.187-2.31,6.082-3.626,9.093-1.286,2.982-2.281,6.286-1.637,9.473.936,4.591,4.883,7.778,7.982,11.286.439.5.848.994,1.257,1.52.029,0,.029,0,.029.029a4.563,4.563,0,0,1,.468.585,127.475,127.475,0,0,0,17.485,5.058c.906.2,1.813.351,2.719.5.76.117,1.52.234,2.251.292.5.058.994.088,1.462.117,2.807.2,5.234-.029,6.842-.906a9.485,9.485,0,0,0,1.667-1.17c.263-.234.526-.468.76-.7a6.134,6.134,0,0,0,.7-.819,8.978,8.978,0,0,0,.789-1.053,6.6,6.6,0,0,0,.468-.76,3.054,3.054,0,0,0,.38-.672,1.963,1.963,0,0,0,.175-.351,3.931,3.931,0,0,0,.351-.7.988.988,0,0,0,.175-.351c.117-.234.234-.5.351-.76a37.4,37.4,0,0,0,1.754-5.468h-.029c.409-1.4.672-2.865.965-4.3a.929.929,0,0,0-.409-.059,2.22,2.22,0,0,0-1.4.994c-.789.965-1.608,1.871-2.368,2.836a10.461,10.461,0,0,1-2.982-2.339,27.148,27.148,0,0,1-6.93-15.321c-.175-1.579-.117-3.362,1.023-4.5a3.593,3.593,0,0,1,2.047-.936,5.1,5.1,0,0,1,1.491,0h.117a25.012,25.012,0,0,1,3.743,1.14,16.516,16.516,0,0,0,6.959.585c.38-.058.731-.088,1.023-.146.322-.029.585-.088.848-.088.029-.175.058-.409.117-.643a4.925,4.925,0,0,1,.263-.936.221.221,0,0,0,.029-.117,3.16,3.16,0,0,1,.175-.322.87.87,0,0,1,.2-.322A11.442,11.442,0,0,0,441.608,198.342Z" transform="translate(-391.847 -176.554)" fill="#382b31"/></g></g></g><g transform="translate(0 134.611)"><g transform="translate(64.089 28.555)"><path d="M389.344,213.588l3.038,37.277s8.585-21.461,8.4-37.326c-.117-10.085-2.459-12.815-2.459-12.815Z" transform="translate(-389.344 -200.723)" fill="#ffcdb2"/></g><g transform="translate(64.042 28.508)" opacity="0.38" style="mix-blend-mode:screen;isolation:isolate"><path d="M389.328,213.572l3.038,37.277s8.585-21.461,8.4-37.326c-.117-10.084-2.459-12.815-2.459-12.815Z" transform="translate(-389.328 -200.707)" fill="#ffcdb2"/></g><path d="M383.872,240.817l11.571,24.075,8.772-26.082-4.355-33.64Z" transform="translate(-335.782 -163.612)" fill="#ffcdb2"/><path d="M387.334,190.957s26.315,37.762,44.233,41.744l-14.122,36.642s-22.458-15.739-35.522-36.455c-13.771-21.839-14.5-30.982-14.5-30.982Z" transform="translate(-367.425 -190.957)" fill="#ffcdb2"/><path d="M387.334,190.957s26.315,37.762,44.233,41.744l-14.122,36.642s-23.578-17.046-35.71-37.017c-13.4-22.064-14.31-30.42-14.31-30.42Z" transform="translate(-367.425 -190.957)" fill="#ffcdb2" opacity="0.38" style="mix-blend-mode:screen;isolation:isolate"/></g></g><g transform="translate(0 178.119)"><path d="M382.685,206.032c0-1.991,30.049,11.292,35.522,39.163S415.222,286,411.24,299.442s-21.4,59.724-21.4,59.724l33.344,37.824s-12.315,1.368-27.371,33.344c0,0-55.244-27.871-62.709-51.759s6.131-82.314,14.307-107.126C358.239,238.6,382.685,206.032,382.685,206.032Z" transform="translate(-330.941 -205.837)" fill="#ffcdb2"/><g transform="translate(8.977 2.087)"><path d="M340.787,257.421s19.845-4.292,31.54,4.664" transform="translate(-320.975 -110.659)" fill="none" stroke="#b57f9b" stroke-linecap="round" stroke-linejoin="round" stroke-width="0.25"/><path d="M382.8,206.551c-20.058,42.116-32.429,87.407-44.5,132.467-3.05,11.377-6.093,23.409-2.988,34.774,3.4,12.435,13.631,21.842,24.52,28.742s22.906,12.043,33.119,19.912" transform="translate(-334.011 -206.551)" fill="none" stroke="#b57f9b" stroke-linecap="round" stroke-linejoin="round" stroke-width="0.25"/><path d="M349.474,303.513a55.228,55.228,0,0,1,30.932-34.794" transform="translate(-304.262 -86.946)" fill="none" stroke="#b57f9b" stroke-linecap="round" stroke-linejoin="round" stroke-width="0.25"/></g><g transform="translate(65.463 191.4)"><g transform="translate(110.392 7.898)"><path d="M391.085,326.818l160.2-10.913L572.242,274,411.02,287.822l-19.789,39" transform="translate(-391.085 -273.999)" fill="#b388eb"/><g transform="translate(15.064 2.619)"><path d="M396.237,321.6l141.668-9.651,18.529-37.057L413.865,287.119l-17.5,34.484" transform="translate(-396.237 -274.895)" fill="#f0e6ef"/><path d="M457.4,277.7l-11.988,23s16.084.342,20.429-13.976C469.765,273.774,457.4,277.7,457.4,277.7Z" transform="translate(-301.635 -270.572)" fill="#8093f1"/></g></g><path d="M353.33,303.119l68.089,30.888s20.9,7.216,29.613,15.178,13.935,8.959,15.924,8.213,15.181-15.429,15.181-15.429,15.678,1.743,18.912.5,20.406-9.953,16.672-14.184l-26.874,1.991-26.131-11.944s4.731-4.231,9.207-3.234,17.421,9.456,20.654,5.722S476.163,302.4,471.435,300.66s-32.347,5.974-36.329,5.477S379.177,271.3,379.177,271.3,362.2,275.965,353.33,303.119Z" transform="translate(-353.33 -271.298)" fill="#ff99a8"/></g></g></g><g transform="translate(253.028)"><path d="M417.479,303.743,458.656,257.5c2.906-3.017,1.357-9.517.822-13.137a67.831,67.831,0,0,1-.678-15.283c2.211-30.216,18.573-58.873,43.177-76.475,22.078-15.792,50.712-22.66,77.5-17.935,34.394,6.07,69.062,30.309,76.65,65.978,6.494,30.52-7.579,61.18-32.388,79.164C582.784,309.5,521.28,303.48,482.191,273.569q-2.57-1.969-5.029-4.082L417.488,303.62" transform="translate(-417.479 -133.207)" fill="#fed54c"/><g transform="translate(101.994 73.551)"><path d="M465.8,165.081a6.718,6.718,0,1,1-6.716-6.719A6.715,6.715,0,0,1,465.8,165.081Z" transform="translate(-452.362 -158.362)" fill="#fff6ed"/><path d="M479.587,165.081a6.719,6.719,0,1,1-6.719-6.719A6.717,6.717,0,0,1,479.587,165.081Z" transform="translate(-425.837 -158.362)" fill="#fff6ed"/><path d="M493.031,165.081a6.718,6.718,0,1,1-6.716-6.719A6.715,6.715,0,0,1,493.031,165.081Z" transform="translate(-399.967 -158.362)" fill="#fff6ed"/></g></g></g><g transform="translate(532.285 2.421)"><g transform="translate(0 98.661)"><ellipse cx="177.673" cy="18.912" rx="177.673" ry="18.912" transform="translate(19.324 390.025)" fill="#b8bedd" opacity="0.22" style="mix-blend-mode:multiply;isolation:isolate"/><path d="M556.419,175.908c-15.111,13.6-20.292,37.113-12.3,55.8,2.146,5.02,5.187,9.909,5.292,15.365.114,5.783-3.094,11.044-4.646,16.616-2.523,9.052-.573,18.883,3.447,27.374s9.991,15.888,15.9,23.192c26.388,1.681,53.265-3.655,77.46-14.318,1.839-.813,3.781-1.757,4.781-3.5,1.193-2.085.71-4.687.175-7.029-5.664-24.713-13.672-49.279-27.792-70.334S581.07,181.823,556.419,175.908Z" transform="translate(-345.306 -152.137)" fill="#ffb4a2"/><g transform="translate(188.66)"><path d="M616.952,215.154s-32.1-7.839-50.019,8.21a194.441,194.441,0,0,0-28.742,32.1l61.963,41.806,23.514-61.215Z" transform="translate(-538.191 -80.315)" fill="#e3a59f"/><g transform="translate(20.572 15.381)"><g transform="translate(47.467 65.544)"><path d="M561.461,237.591c3.506,2.941,9.318,8.737,12.213,16.38,2.462,6.395,1.731,13.511,1.991,17.418.363,5.406,12.263,2.871,15.216,2.354a52.78,52.78,0,0,0,19.251-7.023c3.734-2.368,8.087-5.169,10.4-9.052,3.181-5.342-2.523-12.564-4.737-17.459Q609.359,226,602.931,211.8q-2.022-4.465-4.044-8.932l-3.362-7.412Z" transform="translate(-561.461 -195.455)" fill="#c77b86"/></g><path d="M561.89,226.805l.006.026c1.918,3.865,5.447,11.6,8.342,19.239,10.213-7.143,14.947-25.795,16.865-36.324.79-4.456,1.1-7.453,1.1-7.453-3.687,8.737-24.923,23.54-26.242,24.464A.178.178,0,0,1,561.89,226.805Z" transform="translate(-513.168 -116.754)" opacity="0.24" fill="url(#e)" style="mix-blend-mode:multiply;isolation:isolate"/><path d="M631.983,234.837a57.478,57.478,0,0,1-2.017,10.877,2.745,2.745,0,0,1-.117.468,52.409,52.409,0,0,1-10.672,19.707c-.292.38-.643.76-.994,1.14-6.667,7.105-15.35,12.017-24.21,16.111-.088.058-.2.088-.292.146-.5.234-.965.468-1.462.672-5.029,2.251-10.175,4.327-15.614,5.029-3.976.526-6.9-1.608-8.918-4.854-2.456-3.947-4.035-8.333-5.994-12.543-.351-.731-.643-1.433-.906-2.076-.146-.292-.263-.585-.38-.848-1.286-2.865-2.485-4.971-5.877-6.783-2.982-1.579-7.076-2.953-8.421-5.117-2.222-3.655.292-8.128,1.7-12.514,1.579-4.912,4.444-9.093,4.941-14.239.439-4.269-.935-8.45-1.93-12.631-1.462-6.462-1.93-13.3-.175-19.707a30.174,30.174,0,0,1,6.2-11.4,38.747,38.747,0,0,1,14.123-10.234c14.21-5.965,31.929-2.807,43.332,7.485,6.316,5.7,10.672,13.274,13.421,21.315C630.959,214.282,632.86,224.9,631.983,234.837Z" transform="translate(-545.227 -173.038)" fill="#c77b86"/><g transform="translate(12.041 53.493)"><g transform="translate(12.749)"><path d="M554.231,216.644a20.435,20.435,0,0,0,3.623,7.763,7.328,7.328,0,0,0,.453.576,20.631,20.631,0,1,0-4.076-8.339Z" transform="translate(-553.705 -191.334)" opacity="0.24" fill="url(#f)" style="mix-blend-mode:multiply;isolation:isolate"/></g><g transform="translate(0 26.04)"><path d="M549.722,204.378l3.433-.9c.351-.854-.728-2.1-1.711-2.8a.248.248,0,0,1-.079-.316.238.238,0,0,1,.324-.091,6.725,6.725,0,0,1,1.71,1.3,2.406,2.406,0,0,1,.7,2.3l-.006.02a.405.405,0,0,1-.029.076l-.021.018a.478.478,0,0,1-.33.395l-2.781.728.924.76a.506.506,0,0,1-.471.874.474.474,0,0,1-.172-.094l-1.69-1.389a.51.51,0,0,1-.173-.5A.5.5,0,0,1,549.722,204.378Z" transform="translate(-549.345 -200.24)" fill="#382b31"/></g></g><g transform="translate(15.179 87.937)"><path d="M559.658,203.348a.356.356,0,0,1-.2.468,17.132,17.132,0,0,0-8.655,7.836c-.146-.292-.263-.585-.38-.848a17.411,17.411,0,0,1,8.772-7.661A.366.366,0,0,1,559.658,203.348Z" transform="translate(-550.418 -203.114)" fill="#382b31"/><path d="M551.905,209.627a.367.367,0,0,1-.088-.722,8.06,8.06,0,0,0,4.95-3.646.366.366,0,0,1,.629.374,8.687,8.687,0,0,1-5.406,3.982A.3.3,0,0,1,551.905,209.627Z" transform="translate(-548.259 -199.328)" fill="#382b31"/></g></g><path d="M551.348,183.734q-.513.715-1,1.474c-8.38,13.005-8.184,31.271,6.476,39.367,5.237,2.892,11.886,2.427,16.97,5.579,5.31,3.286,8.07,10.014,13.827,12.432,6.178,2.6,13.222-.763,19.9-.172a17.316,17.316,0,0,1,15.193,14.771c.962,8.21-4.094,15.8-6.017,23.839-2.453,10.257.363,21.254,5.775,30.306s13.24,16.4,21.394,23.087c26.432-4.3,52.384-10.47,76.72-21.64,3.336-11.2,5.511-22.113,4.225-33.727s-8.447-23.4-19.733-26.426c-3.547-.95-7.593-1.14-10.2-3.722-4.2-4.164-1.895-11.114-.909-16.947,1.76-10.4-3.006-22.458-12.856-26.239-5.851-2.246-12.584-1.389-18.33-3.889-7.009-3.047-11.008-10.286-16.04-16.035C635.857,173.371,618.8,167.325,602.3,167.8,584.014,168.337,563.084,167.392,551.348,183.734Z" transform="translate(-525.553 -167.778)" fill="#ffb4a2"/><g transform="translate(80.252 56.88)"><path d="M565.638,207.084s3.485-22.146,17.918-19.657S597.74,202.73,595,209.572c-3.436,8.588-13.687,13.438-13.687,13.438Z" transform="translate(-565.638 -187.231)" fill="#c77b86"/><g transform="translate(13.81 7.949)"><path d="M570.361,189.95a11.553,11.553,0,0,1,6.924,14.7" transform="translate(-570.361 -189.95)" fill="none" stroke="#382b31" stroke-linecap="round" stroke-linejoin="round" stroke-width="0.25"/><path d="M574.878,191.33a13.71,13.71,0,0,0-4.1,8.862" transform="translate(-569.557 -187.295)" fill="none" stroke="#382b31" stroke-linecap="round" stroke-linejoin="round" stroke-width="0.25"/></g></g><path d="M560.444,199.93q5.829,8.263,11.655,16.529a7.854,7.854,0,0,0,2.278,2.412,2.688,2.688,0,0,0,3.117-.114,3.815,3.815,0,0,0,.927-2.24,54.714,54.714,0,0,0-.2-19.394,18.469,18.469,0,0,0-2.094-6.169,8.03,8.03,0,0,0-5.055-3.871,7.885,7.885,0,0,0-7.111,2.649,15.751,15.751,0,0,0-3.406,7.073" transform="translate(-495.379 -130.873)" fill="#ffb4a2"/></g><g transform="translate(122.766 33.6)"><path d="M647.266,200.788c2.032-.626,2.918-4,1.538-5.921-1.819-2.532-27.376-3.857-27.376-3.857s7.918-1.532,12.845-2.219c5.313-.74,8.494-2.857,8.362-4.859s-19.719-5.3-24-4.555-17.07,14.432-21.871,19.631-7.6,18.739-12.1,27.2c-7.669,14.421-19.242,26.224-29.806,38.5-9.675,11.242-19.225,22.666-27.894,34.71a124.8,124.8,0,0,0-8.7,13.421c-11.356,21.005,17.216,30.947,29.563,24.581s41.99-84.983,41.99-84.983,10.055-1.392,16.111-6.76,14.669-24.3,15.956-24.97,11.748-.541,15.754-.8,8.757-2.091,8.523-4.974c-.219-2.728-13.745-3.564-13.745-3.564l9.526-1.953s5.307-.994,6.28-3.362C649.649,202.583,647.266,200.788,647.266,200.788Z" transform="translate(-515.655 -179.27)" fill="#c77b86"/><path d="M647.266,200.788c2.032-.626,2.918-4,1.538-5.921-1.819-2.532-27.376-3.857-27.376-3.857s7.918-1.532,12.845-2.219c5.313-.74,8.494-2.857,8.362-4.859s-19.719-5.3-24-4.555-17.07,14.432-21.871,19.631-7.6,18.739-12.1,27.2c-7.669,14.421-19.242,26.224-29.806,38.5-9.675,11.242-19.225,22.666-27.894,34.71a124.8,124.8,0,0,0-8.7,13.421c-11.356,21.005,17.216,30.947,29.563,24.581s41.99-84.983,41.99-84.983,10.055-1.392,16.111-6.76,14.669-24.3,15.956-24.97,11.748-.541,15.754-.8,8.757-2.091,8.523-4.974c-.219-2.728-13.745-3.564-13.745-3.564l9.526-1.953s5.307-.994,6.28-3.362C649.649,202.583,647.266,200.788,647.266,200.788Z" transform="translate(-515.655 -179.27)" opacity="0.24" fill="url(#g)" style="mix-blend-mode:multiply;isolation:isolate"/></g><g transform="translate(0 351.326)"><path d="M586.651,344.418v.029a8.118,8.118,0,0,1-.234.789c-.994,3.245-2.924,5.614-6.579,5.935-8.216.76-89.325-3.479-89.325-3.479a25.98,25.98,0,0,1-10.906-2.164h-.058a9.115,9.115,0,0,1-1.17-.643h-.029c-3.07-1.9-5.292-5.088-4.532-10.38,1.111-7.661,14.766-13.45,28.216-17.719.234-.088.468-.146.731-.234,10.643-3.333,20.994-5.731,24.707-7.368.058-.029.088-.029.117-.059.2-.088.409-.2.643-.322,2.982-1.374,6.959-3.567,10.877-5.789.2-.146.439-.263.672-.409,7.017-4.035,13.684-8.158,13.684-8.158l30.613,6.959s1.316,8.3,2.31,16.52v.029c.059.351.088.672.146,1.023a118.783,118.783,0,0,1,1.023,12.28C587.557,335.442,587.7,340.442,586.651,344.418Z" transform="translate(-473.668 -275.402)" fill="#b388eb"/><path d="M586.651,344.418v.029a8.118,8.118,0,0,1-.234.789c-.994,3.245-2.924,5.614-6.579,5.935-8.216.76-89.325-3.479-89.325-3.479a25.98,25.98,0,0,1-10.906-2.164h-.058a9.115,9.115,0,0,1-1.17-.643h-.029c-3.07-1.9-5.292-5.088-4.532-10.38,1.111-7.661,14.766-13.45,28.216-17.719.234-.088.468-.146.731-.234,10.643-3.333,20.994-5.731,24.707-7.368.058-.029.088-.029.117-.059.2-.088.409-.2.643-.322,2.982-1.374,6.959-3.567,10.877-5.789.2-.146.439-.263.672-.409,7.017-4.035,13.684-8.158,13.684-8.158l30.613,6.959s1.316,8.3,2.31,16.52v.029c.059.351.088.672.146,1.023a118.783,118.783,0,0,1,1.023,12.28C587.557,335.442,587.7,340.442,586.651,344.418Z" transform="translate(-473.668 -275.402)" fill="#b388eb" opacity="0.16" style="mix-blend-mode:multiply;isolation:isolate"/><path d="M517.416,287.939c-.4-.19-4.444,6.465-4.865,7.1a59.791,59.791,0,0,1-6.564,8.216c-2.3,2.406-4.839,4.57-6.737,7.33-2.465,3.588,33.362,12.064,35.832,3.608,2.676-9.146,6.409-14.122,6.409-14.122Z" transform="translate(-424.684 -287.935)" fill="#c77b86"/><path d="M517.416,287.939c-.4-.19-4.444,6.465-4.865,7.1a59.791,59.791,0,0,1-6.564,8.216c-2.3,2.406-4.839,4.57-6.737,7.33-2.465,3.588,33.362,12.064,35.832,3.608,2.676-9.146,6.409-14.122,6.409-14.122Z" transform="translate(-424.684 -287.935)" fill="#c77b86" opacity="0.2" style="mix-blend-mode:multiply;isolation:isolate"/><path d="M583.551,311.612a8.118,8.118,0,0,1-.234.789c-6.9,1.725-14.064,1.988-20.5,2.018-.848.029-1.7.029-2.515.029-11.286,0-22.689-.585-33.742-1.111-16.432-.819-33.332-1.637-50.057-.643h-.058a9.115,9.115,0,0,1-1.17-.643,331.239,331.239,0,0,1,33.215-.234h.731c5.819.2,11.637.5,17.368.79,11.871.585,24.122,1.169,36.227,1.082,1.14,0,2.31-.029,3.509-.058a7.111,7.111,0,0,0,.789-.029A72.725,72.725,0,0,0,583.551,311.612Z" transform="translate(-470.568 -242.566)" fill="#f0e6ef"/><path d="M493.661,330.108v.175h-.731v-.175a43.616,43.616,0,0,0-9.561-27.865c.234-.088.468-.146.731-.234A44.311,44.311,0,0,1,493.661,330.108Z" transform="translate(-455.003 -260.857)" fill="#f0e6ef"/><path d="M523.6,303.512c-6.2,8.1-12.953,18.567-16.315,27.455-.088.2-.146.409-.234.614l-.672-.263c.029-.117.088-.2.117-.322,3.392-9.21,10.555-20.175,16.958-28.508C523.513,302.84,523.542,303.161,523.6,303.512Z" transform="translate(-410.735 -259.934)" fill="#f0e6ef"/><path d="M500.227,307.838l-.643.322a21.725,21.725,0,0,0-7.514-8.421c.058-.029.088-.029.117-.059.2-.088.409-.2.643-.322A22.25,22.25,0,0,1,500.227,307.838Z" transform="translate(-438.266 -265.955)" fill="#f0e6ef"/><path d="M504.353,306.508l-.672.322a25.243,25.243,0,0,0-7.631-9.181c.2-.146.439-.263.672-.409A25.525,25.525,0,0,1,504.353,306.508Z" transform="translate(-430.608 -270.034)" fill="#f0e6ef"/><g transform="translate(20.903 11.944)"><path d="M593.8,348.5v.029a8.049,8.049,0,0,1-.234.789c-.994,3.246-2.924,5.614-6.579,5.935-8.216.76-89.325-3.479-89.325-3.479a25.98,25.98,0,0,1-10.906-2.164H486.7a9.092,9.092,0,0,1-1.17-.643H485.5c-3.07-1.9-5.292-5.088-4.532-10.38,1.111-7.661,14.766-13.45,28.216-17.719.234-.088.468-.146.731-.234,10.643-3.333,20.994-5.731,24.707-7.368.059-.029.088-.029.117-.059.2-.088.409-.2.643-.322,2.982-1.374,6.959-3.567,10.877-5.789.2-.146.438-.263.672-.409,7.017-4.035,13.684-8.158,13.684-8.158l30.613,6.959s1.316,8.3,2.31,16.52v.029c.059.351.088.672.146,1.023a118.842,118.842,0,0,1,1.023,12.28C594.706,339.527,594.853,344.527,593.8,348.5Z" transform="translate(-480.817 -279.487)" fill="#b388eb"/><path d="M524.565,292.024c-.4-.19-4.444,6.465-4.865,7.1a59.791,59.791,0,0,1-6.564,8.216c-2.3,2.406-4.839,4.57-6.737,7.33-2.465,3.588,33.362,12.064,35.832,3.608,2.675-9.146,6.409-14.122,6.409-14.122Z" transform="translate(-431.833 -292.02)" fill="#c77b86"/><path d="M590.7,315.7a8.049,8.049,0,0,1-.234.789c-6.9,1.725-14.064,1.988-20.5,2.018-.848.029-1.7.029-2.515.029-11.286,0-22.689-.585-33.742-1.111-16.432-.819-33.332-1.637-50.057-.643H483.6a9.092,9.092,0,0,1-1.17-.643,331.2,331.2,0,0,1,33.215-.234h.731c5.819.2,11.637.5,17.368.789,11.871.585,24.122,1.169,36.227,1.082,1.14,0,2.31-.029,3.509-.058a7.112,7.112,0,0,0,.79-.029A72.72,72.72,0,0,0,590.7,315.7Z" transform="translate(-477.717 -246.651)" fill="#f0e6ef"/><path d="M500.81,334.193v.175h-.731v-.175a43.617,43.617,0,0,0-9.561-27.865c.234-.088.468-.146.731-.234A44.313,44.313,0,0,1,500.81,334.193Z" transform="translate(-462.152 -264.942)" fill="#f0e6ef"/><path d="M530.75,307.6c-6.2,8.1-12.953,18.567-16.315,27.455-.088.2-.146.409-.234.614l-.672-.263c.029-.117.088-.2.117-.322,3.392-9.21,10.555-20.175,16.959-28.508C530.662,306.925,530.691,307.246,530.75,307.6Z" transform="translate(-417.884 -264.019)" fill="#f0e6ef"/><path d="M507.376,311.923l-.643.322a21.722,21.722,0,0,0-7.514-8.421c.059-.029.088-.029.117-.059.2-.088.409-.2.643-.322A22.251,22.251,0,0,1,507.376,311.923Z" transform="translate(-445.414 -270.04)" fill="#f0e6ef"/><path d="M511.5,310.593l-.672.322a25.244,25.244,0,0,0-7.631-9.181c.2-.146.438-.263.672-.409A25.525,25.525,0,0,1,511.5,310.593Z" transform="translate(-437.757 -274.119)" fill="#f0e6ef"/></g></g><path d="M575.236,242.807s44.233-26.689,68.121-30.794,34.713,12.318,38.821,34.338,5.6,51.51,1.491,81.746-12.318,63.829-12.318,63.829-45.35.746-65.133-11.2S559,299.355,559,299.355Z" transform="translate(-309.497 -83.893)" fill="#e3a59f"/><g transform="translate(86.51 159.098)"><path d="M778.6,371.125s11.324,67.56-12.067,87.966-108.994,24.385-120.938,10.947c0,0-27.871,4.479-41.806-15.426a145.593,145.593,0,0,1-19.409-39.318l-21.4,30.856-33.344-17.418-26.379-9.456s5.725-134.874,16.3-159.759,16.546-36.826,42.426-37.327c0,0,14.435.5,20.406,9.459,0,0,15.43-12.444,42.8-1.991s45.291,44.791,57.732,74.153,30.359,55.741,30.359,55.741Z" transform="translate(-503.255 -222.191)" fill="#8093f1"/><g transform="translate(26.379 9.459)"><path d="M523.681,376.724s47.776-64.7,67.188-118.447" transform="translate(-490.337 -162.224)" fill="none" stroke="#f0e6ef" stroke-linecap="round" stroke-linejoin="round" stroke-width="0.5"/><path d="M540.3,272.745s8.026,21.274,9.892,35.087,4.6,45.537,24.137,64.946" transform="translate(-458.367 -134.389)" fill="none" stroke="#f0e6ef" stroke-linecap="round" stroke-linejoin="round" stroke-width="0.5"/><path d="M520.973,389.068Q550.139,328.482,579.3,267.9c3.365-6.994,7.371-14.593,14.628-17.342,4.991-1.892,10.731-1.02,15.491,1.4s8.664,6.24,12.093,10.33c28.175,33.59,27.648,85.132,57.525,117.219,7.47,8.023,17.7,14.783,28.607,13.7,11.514-1.143,20.672-10.973,24.564-21.871s3.553-22.786,3.169-34.35" transform="translate(-495.547 -179.051)" fill="none" stroke="#f0e6ef" stroke-linecap="round" stroke-linejoin="round" stroke-width="0.25"/><path d="M560.66,240.83s53.75,116.085,76.89,141.838" transform="translate(-419.193 -195.79)" fill="none" stroke="#f0e6ef" stroke-linecap="round" stroke-linejoin="round" stroke-width="0.5"/><path d="M577.878,275.09A502.658,502.658,0,0,0,638.1,290.133" transform="translate(-386.067 -129.878)" fill="none" stroke="#f0e6ef" stroke-linecap="round" stroke-linejoin="round" stroke-width="0.25"/><path d="M512.277,422.508s17.915-147.315,52.753-197.082" transform="translate(-512.277 -225.426)" fill="none" stroke="#f0e6ef" stroke-linecap="round" stroke-linejoin="round" stroke-width="0.5"/></g></g><path d="M679.56,223.765l-79.5,16.424-65.694-8.959,6.532-6.5s-21.09-8.8-31.914,8.365,5.412,28.868,5.412,28.868,1.585-2.582,4.012-6.067c0,0,56.645,30.949,75.679,32.444s88.465-12.318,88.465-12.318S693.373,242.428,679.56,223.765Z" transform="translate(-412.888 -62.55)" fill="#c77b86"/><g transform="translate(265.304 155.429)"><path d="M571.249,220.936l-6.845,5.1s7.839,3.421,7.839,26.189c0,22.447-4.354,29.239-4.354,29.239s39.689,5.289,69.176-18.228" transform="translate(-564.404 -220.936)" fill="none" stroke="#575369" stroke-linecap="round" stroke-linejoin="round" stroke-width="0.25"/><path d="M584.7,238.273a46.192,46.192,0,0,0,18.666,2.824" transform="translate(-525.351 -187.581)" fill="none" stroke="#575369" stroke-linecap="round" stroke-linejoin="round" stroke-width="0.25"/><path d="M587.283,239.062c6.985,14.646,10.044,30.917,10.924,47.122s-.357,32.438-1.591,48.619" transform="translate(-520.387 -186.063)" fill="none" stroke="#575369" stroke-linecap="round" stroke-linejoin="round" stroke-width="0.25"/></g></g><g transform="translate(135.571)"><path d="M524.115,245.006a20,20,0,0,1,24.754-30.175,31.59,31.59,0,0,1-4.19-27.844c3.14-8.971,11.415-16.087,20.844-17.28s19.488,3.921,23.59,12.494c-8.573-17.918,2.8-43.478,26.377-47.616,24.256-4.254,40.3,16.921,43.361,38.391-.161-6.026,6.1-11.66,12.041-12.69s12.155,1.874,15.95,6.561,5.359,10.891,5.257,16.921c6.716-11.248,23.339-15.409,35.262-9.985s18.514,20.412,14.45,32.868c5.169-5.7,15.336-4.713,22.219-1.281s11.409,10.678,12.667,18.266-1.439,14.59-4.623,21.593c-.214,0,.021.17-.2.17Z" transform="translate(-520.034 -134.035)" fill="#2043a1"/><path d="M595.7,178.787a20.9,20.9,0,0,0-1.368,2.336A37.247,37.247,0,0,0,589.6,193.67c-.447,2.576.064,5.821,2.032,7.684a7.541,7.541,0,0,0,5.924,1.746,6.66,6.66,0,0,0,3.675-1.5c4.167-3.576,1.3-10.242-.6-14.2A82.543,82.543,0,0,0,595.7,178.787Z" transform="translate(-386.495 -47.937)" fill="#9c89b8"/><path d="M580.018,197.155a17.984,17.984,0,0,0-1.2,2.053,32.681,32.681,0,0,0-4.164,11.026c-.395,2.263.056,5.114,1.787,6.751a6.627,6.627,0,0,0,5.2,1.535,5.86,5.86,0,0,0,3.231-1.319c3.661-3.14,1.14-9-.529-12.476A72.33,72.33,0,0,0,580.018,197.155Z" transform="translate(-415.211 -12.599)" fill="#9c89b8"/><path d="M535.794,179.244a17.984,17.984,0,0,0-1.2,2.053,32.622,32.622,0,0,0-4.164,11.026c-.395,2.263.056,5.114,1.784,6.751a6.623,6.623,0,0,0,5.207,1.535,5.822,5.822,0,0,0,3.228-1.319c3.664-3.14,1.143-9-.526-12.476A73.414,73.414,0,0,0,535.794,179.244Z" transform="translate(-500.293 -47.058)" fill="#9c89b8"/><path d="M545.578,204.507a18.48,18.48,0,0,0-1.2,2.053,32.766,32.766,0,0,0-4.164,11.026c-.395,2.263.058,5.114,1.786,6.751a6.617,6.617,0,0,0,5.2,1.535,5.856,5.856,0,0,0,3.231-1.316c3.664-3.143,1.143-9-.529-12.479A72.329,72.329,0,0,0,545.578,204.507Z" transform="translate(-481.469 1.546)" fill="#9c89b8"/><path d="M601.3,208.488a17.547,17.547,0,0,0-1.2,2.053,32.666,32.666,0,0,0-4.163,11.023c-.395,2.263.056,5.117,1.786,6.754a6.639,6.639,0,0,0,5.2,1.535,5.882,5.882,0,0,0,3.231-1.319c3.661-3.143,1.14-9-.529-12.476A71.764,71.764,0,0,0,601.3,208.488Z" transform="translate(-374.264 9.205)" fill="#9c89b8"/></g></g></g><g transform="translate(160.837 603.122)"><path d="M784.879,574.753c-243.18-3.363-444.023-30.789-511.8-67.513a80.989,80.989,0,0,1-3.86-14.152c-2.719-15.584.585-33.186,11.491-44.3a35.72,35.72,0,0,1,4.006-3.538c6.345-4.8,14.152-7.427,20.146-12.631,19.122-16.578,10.906-48.771,23.274-70.846,13.187-23.508,47.6-28.1,71.343-15.321,23.391,12.573,37.806,37.192,46.929,62.191.146.38.263.731.409,1.111,3.6,10.087,6.637,20.526,12.573,29.473,5.906,8.918,15.438,16.257,26.169,16.315,13.859.088,25.058-11.549,38.625-14.385,23.479-4.912,43.42,16.988,56.109,37.309,12.719,20.35,27.689,44.122,51.578,46.139,19.268,1.608,36.11-11.988,54.385-18.3,24.473-8.479,53.273-2.982,72.922,13.918C774.85,533.731,784.206,554.081,784.879,574.753Z" transform="translate(-268.317 -339.481)" fill="#9fdde3"/><path d="M974.308,451.182q-1.579.7-3.245,1.4c-77.337,32.66-262.478,56.665-484.782,60.525-1.316-1.579-2.544-3.187-3.684-4.8,2.953-12.193,6.4-24.531,13.391-34.941s18.128-18.742,30.642-19.415c9.912-.526,19.853,3.684,29.59,1.784,11.374-2.193,19.62-12.222,24.678-22.631,5.058-10.438,7.982-21.9,14.093-31.724A56.03,56.03,0,0,1,686.3,395.95c9.356,11.666,13.684,26.549,21.7,39.18s22.514,23.537,36.958,19.619c16.432-4.474,25.146-26.052,42.133-27.338,15.643-1.17,27.368,15.847,42.981,17.339,12.778,1.228,24.181-8.421,31.11-19.21s11.14-23.3,19.064-33.391c13.362-17.017,37.28-24.122,58.156-19.21a1.856,1.856,0,0,0,.2.058,60.941,60.941,0,0,1,6.345,1.93,49.716,49.716,0,0,1,10.438,5.38C977.524,395.19,985.828,427.236,974.308,451.182Z" transform="translate(143.933 -278.043)" fill="#fed54c"/></g></svg>