<svg width="36" height="37" viewBox="0 0 36 37" fill="none" xmlns="http://www.w3.org/2000/svg">
<path d="M18.2323 14.7442V20.2827C18.2323 20.8356 18.679 21.2835 19.2319 21.2828C21.1426 21.2803 25.2992 21.2751 27.2779 21.2751C25.8602 25.5155 23.6565 27.824 18.2323 27.824C12.7428 27.824 8.45818 23.432 8.45818 18.0135C8.45818 12.5964 12.7428 8.20434 18.2323 8.20434C21.1344 8.20434 23.009 9.21137 24.7283 10.6145C26.1043 9.25638 25.9894 9.06218 29.4907 5.79801C26.5181 3.12804 22.5678 1.5011 18.2323 1.5011C8.99212 1.5011 1.5 8.8937 1.5 18.0135C1.5 27.1334 8.99212 34.5273 18.2323 34.5273C32.0442 34.5273 35.4202 22.6577 34.3014 14.7442H18.2323Z" fill="#2DD3E3"/>
<mask id="mask0" mask-type="alpha" maskUnits="userSpaceOnUse" x="1" y="1" width="34" height="34">
<path d="M18.2323 14.7442V20.2827C18.2323 20.8356 18.679 21.2835 19.2319 21.2828C21.1426 21.2803 25.2992 21.2751 27.2779 21.2751C25.8602 25.5155 23.6565 27.824 18.2323 27.824C12.7428 27.824 8.45818 23.432 8.45818 18.0135C8.45818 12.5964 12.7428 8.20434 18.2323 8.20434C21.1344 8.20434 23.009 9.21137 24.7283 10.6145C26.1043 9.25638 25.9894 9.06218 29.4907 5.79801C26.5181 3.12804 22.5678 1.5011 18.2323 1.5011C8.99212 1.5011 1.5 8.8937 1.5 18.0135C1.5 27.1334 8.99212 34.5273 18.2323 34.5273C32.0442 34.5273 35.4202 22.6577 34.3014 14.7442H18.2323Z" fill="white"/>
</mask>
<g mask="url(#mask0)">
</g>
</svg>
