<svg width="35" height="35" viewBox="0 0 35 35" fill="none" xmlns="http://www.w3.org/2000/svg">
<path d="M29.2578 4.62682C30.9347 4.28241 32.5884 3.39473 32.5884 3.39473C33.3256 3.04856 33.6012 3.31906 33.2037 4.01651C33.2037 4.01651 32.2112 6.07413 30.6949 7.02984C32.1797 6.84341 33.52 6.29924 33.52 6.29924C34.2926 6.0365 34.5007 6.66055 33.9952 7.29167C33.9952 7.29167 32.6842 9.11819 31.25 10.2083C31.2624 10.538 31.2682 10.4798 31.2682 10.8164C31.2682 22.4922 25.3761 32.8125 10.3789 32.8125C4.74279 32.8125 1.72544 30.5762 1.72544 30.5762C0.269777 29.8354 0.435023 28.9706 2.05229 28.7287C2.05229 28.7287 7.48179 28.2115 9.99381 26.1372C-4.37503 18.9583 1.48563 5.05932 1.48563 5.05932C1.54196 4.25827 2.09591 4.05424 2.68917 4.61642C2.68917 4.61642 9.15627 11.3561 16.7492 11.6789C16.6231 11.1127 16.5601 10.525 16.5601 9.91857C16.5601 5.64926 19.8479 2.1875 23.8993 2.1875C26.0129 2.1875 27.922 3.12555 29.2578 4.62682Z" fill="#1A1A1A"/>
</svg>
