<svg width="36" height="36" viewBox="0 0 36 36" fill="none" xmlns="http://www.w3.org/2000/svg">
<path d="M1.50049 18.0402C1.50049 8.90538 8.88779 1.50012 18.0005 1.50012C27.1132 1.50012 34.5005 8.90538 34.5005 18.0402C34.5005 26.6218 27.9809 33.677 19.636 34.5001C19.6807 34.4922 19.7253 34.4838 19.7698 34.4749V22.7882H24.0595L24.7014 17.7957H19.7698V14.6082C19.7698 13.1627 20.17 12.1779 22.238 12.1779L24.8751 12.1766V7.71147C24.419 7.65043 22.8537 7.51471 21.0323 7.51471C17.2301 7.51471 14.6267 9.84112 14.6267 14.1141V17.7957H10.326V22.7882H14.6267V34.2343C7.1321 32.6733 1.50049 26.016 1.50049 18.0402Z" fill="#2DD3E3"/>
</svg>
