<svg width="91" height="88" viewBox="0 0 91 88" fill="none" xmlns="http://www.w3.org/2000/svg">
<path d="M81.7914 16.1258H70.1818V9.95929C70.1793 7.50688 69.2612 5.15567 67.6288 3.42155C65.9964 1.68744 63.7831 0.712074 61.4745 0.709473H9.23115C6.92261 0.712074 4.70931 1.68744 3.07692 3.42155C1.44453 5.15567 0.526375 7.50688 0.523926 9.95929V50.0418C0.526375 52.4942 1.44453 54.8454 3.07692 56.5796C4.70931 58.3137 6.92261 59.289 9.23115 59.2916V70.0831C9.23093 70.3882 9.31592 70.6865 9.47536 70.9402C9.63481 71.1939 9.86154 71.3917 10.1269 71.5085C10.3922 71.6253 10.6841 71.6558 10.9658 71.5962C11.2474 71.5367 11.5061 71.3896 11.7091 71.1738L20.8408 61.4711V65.4582C20.8432 67.9106 21.7614 70.2618 23.3938 71.9959C25.0262 73.73 27.2395 74.7054 29.548 74.708H68.1301L79.3135 86.5902C79.5164 86.806 79.7751 86.953 80.0568 87.0126C80.3384 87.0722 80.6304 87.0417 80.8957 86.9249C81.161 86.8081 81.3877 86.6103 81.5472 86.3566C81.7066 86.1028 81.7916 85.8045 81.7914 85.4994V74.708C84.0999 74.7054 86.3132 73.73 87.9456 71.9959C89.578 70.2618 90.4962 67.9106 90.4986 65.4582V25.3756C90.4962 22.9232 89.578 20.572 87.9456 18.8379C86.3132 17.1038 84.0999 16.1284 81.7914 16.1258ZM22.292 56.2084C21.907 56.2082 21.5377 56.3704 21.2653 56.6593L12.1336 66.362V57.75C12.1336 57.3411 11.9807 56.949 11.7085 56.6599C11.4364 56.3708 11.0672 56.2084 10.6824 56.2084H9.23115C7.69215 56.2065 6.21668 55.5562 5.12844 54.4002C4.0402 53.2441 3.42806 51.6767 3.42634 50.0418V9.95929C3.42806 8.32438 4.0402 6.75696 5.12844 5.60091C6.21668 4.44486 7.69215 3.79458 9.23115 3.79274H61.4745C63.0135 3.79458 64.489 4.44486 65.5772 5.60091C66.6655 6.75696 67.2776 8.32438 67.2793 9.95929V50.0418C67.2776 51.6767 66.6655 53.2441 65.5772 54.4002C64.489 55.5562 63.0135 56.2065 61.4745 56.2084H22.292ZM87.5962 65.4582C87.5945 67.0931 86.9824 68.6605 85.8941 69.8166C84.8059 70.9726 83.3304 71.6229 81.7914 71.6247H80.3402C79.9553 71.6247 79.5862 71.7871 79.314 72.0763C79.0419 72.3654 78.889 72.7575 78.889 73.1664V81.7783L69.7573 72.0757C69.4848 71.7868 69.1155 71.6246 68.7306 71.6247H29.548C28.009 71.6229 26.5335 70.9726 25.4453 69.8166C24.3571 68.6605 23.7449 67.0931 23.7432 65.4582V59.2916H61.4745C63.7831 59.289 65.9964 58.3137 67.6288 56.5796C69.2612 54.8454 70.1793 52.4942 70.1818 50.0418V19.2091H81.7914C83.3304 19.2109 84.8059 19.8612 85.8941 21.0173C86.9824 22.1733 87.5945 23.7407 87.5962 25.3756V65.4582Z" fill="black"/>
<path d="M35.3526 33.0838C36.2137 33.0838 37.0554 32.8126 37.7714 32.3044C38.4873 31.7962 39.0453 31.0739 39.3749 30.2288C39.7044 29.3837 39.7906 28.4538 39.6226 27.5566C39.4546 26.6595 39.04 25.8354 38.4311 25.1886C37.8222 24.5418 37.0465 24.1013 36.202 23.9229C35.3575 23.7444 34.4821 23.836 33.6866 24.186C32.8911 24.5361 32.2111 25.1289 31.7327 25.8894C31.2544 26.65 30.999 27.5442 30.999 28.4589C31.0003 29.6851 31.4594 30.8606 32.2756 31.7277C33.0918 32.5947 34.1984 33.0824 35.3526 33.0838ZM35.3526 26.9173C35.6397 26.9173 35.9202 27.0077 36.1589 27.1771C36.3975 27.3465 36.5835 27.5872 36.6934 27.8689C36.8032 28.1506 36.832 28.4606 36.776 28.7597C36.72 29.0587 36.5817 29.3334 36.3788 29.549C36.1758 29.7646 35.9173 29.9114 35.6358 29.9709C35.3542 30.0304 35.0625 29.9999 34.7973 29.8832C34.5321 29.7665 34.3055 29.5689 34.146 29.3154C33.9865 29.0619 33.9014 28.7638 33.9014 28.4589C33.9019 28.0502 34.0549 27.6583 34.327 27.3693C34.599 27.0803 34.9679 26.9177 35.3526 26.9173Z" fill="black"/>
<path d="M20.8409 33.0838C21.702 33.0838 22.5437 32.8126 23.2597 32.3044C23.9756 31.7962 24.5336 31.0739 24.8631 30.2288C25.1926 29.3837 25.2789 28.4538 25.1109 27.5566C24.9429 26.6595 24.5282 25.8354 23.9194 25.1886C23.3105 24.5418 22.5348 24.1013 21.6903 23.9229C20.8457 23.7444 19.9704 23.836 19.1749 24.186C18.3793 24.5361 17.6994 25.1289 17.221 25.8894C16.7426 26.65 16.4873 27.5442 16.4873 28.4589C16.4886 29.6851 16.9477 30.8606 17.7639 31.7277C18.5801 32.5947 19.6867 33.0824 20.8409 33.0838ZM20.8409 26.9173C21.1279 26.9173 21.4085 27.0077 21.6472 27.1771C21.8858 27.3465 22.0718 27.5872 22.1817 27.8689C22.2915 28.1506 22.3202 28.4606 22.2642 28.7597C22.2082 29.0587 22.07 29.3334 21.8671 29.549C21.6641 29.7646 21.4055 29.9114 21.124 29.9709C20.8425 30.0304 20.5507 29.9999 20.2856 29.8832C20.0204 29.7665 19.7937 29.5689 19.6343 29.3154C19.4748 29.0619 19.3897 28.7638 19.3897 28.4589C19.3901 28.0502 19.5432 27.6583 19.8152 27.3693C20.0873 27.0803 20.4562 26.9177 20.8409 26.9173Z" fill="black"/>
<path d="M49.8648 33.0838C50.7259 33.0838 51.5676 32.8126 52.2836 32.3044C52.9995 31.7962 53.5575 31.0739 53.8871 30.2288C54.2166 29.3837 54.3028 28.4538 54.1348 27.5566C53.9668 26.6595 53.5522 25.8354 52.9433 25.1886C52.3345 24.5418 51.5587 24.1013 50.7142 23.9229C49.8697 23.7444 48.9943 23.836 48.1988 24.186C47.4033 24.5361 46.7233 25.1289 46.2449 25.8894C45.7666 26.65 45.5112 27.5442 45.5112 28.4589C45.5125 29.6851 45.9716 30.8606 46.7878 31.7277C47.604 32.5947 48.7106 33.0824 49.8648 33.0838ZM49.8648 26.9173C50.1519 26.9173 50.4324 27.0077 50.6711 27.1771C50.9097 27.3465 51.0957 27.5872 51.2056 27.8689C51.3154 28.1506 51.3442 28.4606 51.2882 28.7597C51.2322 29.0587 51.094 29.3334 50.891 29.549C50.6881 29.7646 50.4295 29.9114 50.148 29.9709C49.8665 30.0304 49.5747 29.9999 49.3095 29.8832C49.0443 29.7665 48.8177 29.5689 48.6582 29.3154C48.4988 29.0619 48.4136 28.7638 48.4136 28.4589C48.4141 28.0502 48.5671 27.6583 48.8392 27.3693C49.1112 27.0803 49.4801 26.9177 49.8648 26.9173Z" fill="black"/>
</svg>
